<svg xmlns="http://www.w3.org/2000/svg" xmlns:xlink="http://www.w3.org/1999/xlink" width="328.061" height="445.157" viewBox="0 0 328.061 445.157">
  <defs>
    <linearGradient id="linear-gradient" x1="0.441" y1="0.308" x2="0.121" y2="0.795" gradientUnits="objectBoundingBox">
      <stop offset="0" stop-color="#fff"/>
      <stop offset="1" stop-color="#9b9fb0"/>
    </linearGradient>
    <filter id="Path_22" x="1.903" y="0" width="326.158" height="267.322" filterUnits="userSpaceOnUse">
      <feOffset dy="-3" input="SourceAlpha"/>
      <feGaussianBlur stdDeviation="2" result="blur"/>
      <feFlood flood-color="#9b9fb0" flood-opacity="0.702"/>
      <feComposite operator="in" in2="blur"/>
      <feComposite in="SourceGraphic"/>
    </filter>
    <linearGradient id="linear-gradient-2" x1="0.525" y1="0.786" x2="0.931" y2="0.168" xlink:href="#linear-gradient"/>
    <filter id="Path_28" x="0" y="206.424" width="324.547" height="238.733" filterUnits="userSpaceOnUse">
      <feOffset dy="3" input="SourceAlpha"/>
      <feGaussianBlur stdDeviation="2" result="blur-2"/>
      <feFlood flood-color="#9b9fb0" flood-opacity="0.702"/>
      <feComposite operator="in" in2="blur-2"/>
      <feComposite in="SourceGraphic"/>
    </filter>
    <radialGradient id="radial-gradient" cx="0.185" cy="0.377" r="0.679" gradientTransform="matrix(0.731, -0.682, 0.723, 0.774, -0.222, 0.211)" gradientUnits="objectBoundingBox">
      <stop offset="0" stop-color="#f9f9f9"/>
      <stop offset="0.22" stop-color="#f3f3f5"/>
      <stop offset="0.757" stop-color="#9498a8"/>
      <stop offset="1" stop-color="#6a6e81"/>
    </radialGradient>
    <filter id="Path_61" x="103.71" y="99.754" width="145.583" height="222.085" filterUnits="userSpaceOnUse">
      <feOffset dy="3" input="SourceAlpha"/>
      <feGaussianBlur stdDeviation="3" result="blur-3"/>
      <feFlood flood-opacity="0.161"/>
      <feComposite operator="in" in2="blur-3"/>
      <feComposite in="SourceGraphic"/>
    </filter>
  </defs>
  <g id="logo-light" transform="translate(-132.009 -20.843)">
    <g id="Group_30" data-name="Group 30" transform="translate(136.534 29.843)">
      <g id="Group_27" data-name="Group 27" transform="translate(0)">
        <g id="Group_15" data-name="Group 15" transform="translate(1.475 0)">
          <g transform="matrix(1, 0, 0, 1, -6, -9)" filter="url(#Path_22)">
            <path id="Path_22-2" data-name="Path 22" d="M294.69,84.989C292.855,67.938,135.842-95.732,135.842-95.732L-18.022,80.239l-.883,2.676v2.242L20.71,132.911s-3.39-10.374-3.31-15.8.134-5,1.664-8.877c2.824-7.411,76.529-87.221,105.679-119.713,6.807-7.587,11.1-12.363,11.1-12.363l12.093,13.566L286,144.607l3.907,14.982a66.436,66.436,0,0,0,2.7-9.232C293.359,146.325,296.524,102.04,294.69,84.989Z" transform="translate(26.81 104.73)" fill="url(#linear-gradient)"/>
          </g>
          <g transform="matrix(1, 0, 0, 1, -6, -9)" filter="url(#Path_28)">
            <path id="Path_28-2" data-name="Path 28" d="M291.307-45.948a10.135,10.135,0,0,1-1.407,4.5l-154.483,172.3S-18.005-29.612-20.562-42.368s2.919-41.419,4.405-45.862,2.428-2.087,2.428-2.087-.135-9.407,4.249-3.746,144.9,152.528,144.9,152.528L250.279-70.2l3.092-5.472a25.868,25.868,0,0,0,.786-9.174,37.918,37.918,0,0,0-2.669-9.219l9.9,10.948s27.958,30.7,28.653,32.05A9.213,9.213,0,0,1,291.307-45.948Z" transform="translate(27.23 305.3)" fill="url(#linear-gradient-2)"/>
          </g>
        </g>
        <path id="Path_55" data-name="Path 55" d="M134.718,116.361S-18.7-44.11-21.261-56.865s-2.93-63.26-.568-71.017a33.422,33.422,0,0,1,7.983-13.077s-4,8.75-.581,16.665S134.718,43.967,134.718,43.967Z" transform="translate(23.407 310.796)" fill="#fff"/>
        <path id="Path_53" data-name="Path 53" d="M368.037,84.989C366.2,67.938,209.19-95.732,209.19-95.732v71.892l12.093,13.566s131.24,143.756,137.863,155.065,1.174,18.067,1.174,18.067,6.211-6.421,6.957-10.454S369.871,102.04,368.037,84.989Z" transform="translate(-51.065 95.732)" fill="#fff"/>
      </g>
    </g>
    <g id="Group_36" data-name="Group 36" transform="translate(218.524 126.596)">
      <path id="Path_62" data-name="Path 62" d="M-10397.967-3876.627s-19.941,21.045-22.136,43.188,4.825,46.586,29.876,62.549,56.963,10.459,70.326,0c.482-.376-.61-6.519,0-7.069,11.193-10.04,4.52-14.613,4.52-14.613l-4.52-32.383-22.412-23.381s-1.261,23.011-12.516,25.9-21.638,1.426-32.515-14.346S-10397.967-3876.627-10397.967-3876.627Z" transform="translate(10420.48 3965.188)" fill="url(#radial-gradient)"/>
      <g transform="matrix(1, 0, 0, 1, -86.51, -105.75)" filter="url(#Path_61)">
        <path id="Path_61-2" data-name="Path 61" d="M-10341.2-3973.721s-32.187,21.975-26.855,42.878,74.02,15.5,87.509,75.106-34.528,74.2-51.983,80.368a111.407,111.407,0,0,1-30.021,5.639,57.553,57.553,0,0,1-6.722,0c.174,0,13.946-4.279,21.187-10.312,2.99-2.491,14.771-14.238,15.556-30.889s-3.383-25.788-15.556-33.534c-30.187-19.21-40.5-24.042-50.739-39.108s-9.584-32.834,4.82-55.372S-10341.2-3973.721-10341.2-3973.721Z" transform="translate(10518.48 4079.47)" fill="#fff"/>
      </g>
    </g>
  </g>
</svg>
