<svg xmlns="http://www.w3.org/2000/svg" xmlns:xlink="http://www.w3.org/1999/xlink" width="469.036" height="650.281" viewBox="0 0 469.036 650.281">
  <defs>
    <linearGradient id="linear-gradient" x1="0.5" x2="0.5" y2="1" gradientUnits="objectBoundingBox">
      <stop offset="0" stop-color="#ae668d"/>
      <stop offset="1" stop-color="#c675a1"/>
    </linearGradient>
    <linearGradient id="linear-gradient-2" x1="0.5" x2="0.5" y2="1" gradientUnits="objectBoundingBox">
      <stop offset="0" stop-color="#c675a1"/>
      <stop offset="0.481" stop-color="#ff7cc0" stop-opacity="0.859"/>
      <stop offset="1" stop-color="#f9cbe3" stop-opacity="0.639"/>
    </linearGradient>
    <linearGradient id="linear-gradient-3" x1="0.236" y1="0.783" x2="0.589" y2="0.161" gradientUnits="objectBoundingBox">
      <stop offset="0" stop-color="#fecde6" stop-opacity="0.722"/>
      <stop offset="0.464" stop-color="#ff77be" stop-opacity="0.851"/>
      <stop offset="1" stop-color="#c675a1"/>
    </linearGradient>
  </defs>
  <g id="blobbs" transform="translate(-187.282 -185.353)">
    <path id="Path_267" data-name="Path 267" d="M3600.215,1482.1s.86,13.329-12.25,45.172c-2.775,6.731-20.61,9.092-23.4,20.053-1.4,5.508,7.433,11.049,4.809,26.805-.7,4.222-17.711,7.571-24.927,23.531-1.414,3.128,1.479,10.342.928,18.9-.332,5.146-14.074,11.812-14.3,19.2-.281,9.283,12.282,21.555,14.3,32.11,3.667,19.244-17.948,20.579-20.471,34.824s9.8,8.719,10.379,22.154c.147,3.385-10.542,8.615-10.379,13.54.275,8.236,8.5,16.405,4.086,26.5-3.763,8.609-20.187,19.111-20.182,26.335.01,10.153,16.8,12.832,16.1,23.437-.527,8.712-7.729,28.53-4.9,33.543,9.366,16.6,29.772,6.095,32.89,21.094,1.174,5.736-11.915,31.321-5.913,37,3.95,3.739,31.4-8,36.585-3.112,3.842,3.624,1.7,12.712,7.022,16.6,8.555,6.247,29.939-2.537,38.063,4.15,11.961,9.846-1.94,15.388,12.934,28.01s46.565,22.477,46.565,22.477-28.454-4.173-50.629-15.907c-10.778-5.705-18.261-18.15-25.868-20.749-5.585-1.9-17.613,2.987-24.022,0-6.55-3.057-1.963-12.984-9.977-15.907-11.3-4.123-34.784-.1-39.96-3.458-19.168-12.449,4.794-19.583-4.871-41.151-2.616-5.834-25.1-5.024-27.647-11.758-2.456-6.5,2.695-11.27,0-17.29-3.36-7.5-10.827-4.811-11.778-8.3-3.87-14.178,10.435-17.092,7.76-25.244-1.688-5.105-13.681-6.64-13.3-15.562.232-5.441,11.063-9.488,11.087-17.29.009-3.855-5.8-9.032-5.542-14.178.4-8.042,12.358-16.979,11.778-25.936-.631-9.7-9.775-17.323-9.756-26.281.024-12.425,9.272-24.869,9.756-27.665,2.018-11.648-18.126-17.637-11.778-27.319,6.025-9.179,6.937-9.716,11.778-24.671,1.889-5.845-10.365-17.551-7.907-23.295,2.919-6.822,15.151-8.5,16.565-12.15,6.342-16.37-11.07-21.043,0-30.284,4.319-3.594,15.938-2.62,20.336-9,4.121-5.986-3.317-19.24,2.186-25.987,6.331-7.759,18.2-8.651,23.4-16.574,19.689-30.01,18.537-48.529,18.537-48.529Z" transform="translate(-3047.21 -1228.373)" stroke="#85496a" stroke-width="1" opacity="0.71" fill="url(#linear-gradient)"/>
    <path id="Path_276" data-name="Path 276" d="M21.384-2.638l5.2,1.094s1.524,9.941-7.8,25.281c-2.845,4.681-20.124,15.146-32.013,33.08-17.5,26.4-30.6,72.074-30.409,96.231.084,10.728-.84,30.686-4.094,66.039S-60.749,294.46-60.749,294.46s2.707,34.6,11.1,53.639c3.136,7.117,4.455,14.8,8.786,18.5,6.123,5.23,15.4,4.766,19.421,8.786,13.41,13.41-14.674,31.358,0,42.079,8.29,6.057,23.608-3.138,33.756,0,9.014,2.788,9.3,17,17.076,20.042,15.976,6.255,12.562-9.25,31.15,0,5.669,2.821,2.99,15.065,9.261,20.416,13.589,11.6,34.994,18.268,34.994,18.268s-23.965-5.869-38.152-16.795c-8-6.163-6.86-19.268-11.155-20.205-11.576-2.526-19.524,8.053-29.887,1.473-6.141-3.9-4.02-16.254-13.288-19.037-11.425-3.431-30.064,7.991-39.767,0-6.49-5.344,3.662-26.257,2.312-36.993-1.249-9.925-14.017-8.286-18.5-13.872-11.261-14.043-11.681-24.6-14.334-32.831-4.046-12.544-5.737-21.715-7.861-39.767-3.2-27.217,16.63-54.106,11.56-75.372-5.7-23.9-1.387-43,4.624-79.534S-33.566,83.013-15.01,55.039c9.068-13.671,26.833-28.541,30.1-34.146C22.277,8.557,21.384-2.638,21.384-2.638Z" transform="translate(518 264)" fill="#fff" opacity="0.32"/>
    <path id="Path_266" data-name="Path 266" d="M186.292,0s-1.21,16.8-6.4,26.935c-.722,1.409-10.409,1.08-15.568,7.66-2.213,2.822,2.668,10.578-.989,15.32-2.66,3.447-21.223-1.018-25.2,3.954-5.975,7.461-5.2,23.456-12.355,33.607-3.5,4.97-15.813,4.33-20.263,10.378-3.214,4.369.784,15.251-2.965,20.756-1.9,2.791-12.389,1.682-15.074,5.436-4.388,6.139.478,17.621-3.706,24.463-3.43,5.6-10.436,6.041-15.073,10.873-6.933,7.258,4.941,21.5-.989,28.17-1.31,1.474-7.5,4.914-9.637,12.355-1.559,5.406,5.6,14.6,4.2,23.227-.98,6.009-11.35,7.1-13.6,14.086-1.445,4.5,15.127,11.7,15.332,17.544.174,5.814-8.34,9.081-5.932,17.544s14.544,10.517,15.568,16.309c1.091,6.2-7.141,11.709-7.166,20.016-.032,16.17,13.59,9.39,14.333,24.463.172,3.512-10.875,8.448-18.263,22.428-2.7,5.12,6.265,22.611,2.472,29.843-2.784,5.3-18.062,3.229-22.049,9.694-3.213,5.211,1.475,15.3-2.282,21.86-3.1,5.414-10.82-1.081-15.966,3.991-3.671,3.633,2.077,15.295-1.522,22.24-3.163,6.088-15.463,7.589-18.057,12.166-4.3,7.59,5.894,10.454,4.752,19.959S-2.662,485.6.576,493.333c1.064,2.51,7.207,3.057,8.173,7.413.512,2.36-4.9,5.256-3.611,8.364C10.157,521.249,19.2,525.646,19.2,525.646s2.851-32.5,5.513-35.925c1.651-2.7,12-1.728,14.256-6.083,1.958-3.787-5.292-14.3-2.281-19.389,2.888-4.877,12.338-1.411,15.967-7.983,2.673-4.846-2.229-18.354,1.33-24.141,1.424-2.315,16.449-1.84,18.439-5.132.849-1.406-4.142-9.214-2.662-11.6,2.892-4.653,11.655-3.27,14.635-8.173,2.08-3.424-5.922-9.959-3.6-13.42,3.209-4.777,13.836-2.683,15.567-4.863,12.107-15.242-2.322-18.047,0-21.5a42.1,42.1,0,0,1,9.182-9.627c15.035-11.624-7.708-10.452-5.969-18.3,1.344-5.99,12.085-9.847,10.625-19.273-.619-3.952-13.771-5.076-13.837-10.131-.086-6.771,10.308-8.015,9.182-14.826-1.289-7.8-9.889,6.169-11.406-4.942-.624-4.59,5.3-9.366,4.2-15.567-.591-3.323-15.89-11.737-16.555-16.309-.354-2.436,7.948-7.673,7.413-11.367-.584-4.022-6.832-4.754-7.413-9.884-.719-6.36,11.264-9.7,10.377-16.557-.754-5.84-10.82-6.911-11.366-12.849-.355-3.863,6.956-7.183,6.67-11.12-.342-4.675-7.138-8.908-6.67-11.12,3.706-17.545,13.343-7.66,18.78-19.768,2.228-5.239-3.868-19.257,0-25.946,1.641-2.833,13.63-.144,15.814-4.2,3.223-5.992-.863-20.235,3.212-25.946,2.728-3.827,16.85,3.629,19.521,0,2-2.73-.557-7.518.989-8.9,11.368-10.131,19.836,4.448,31.63-5.683s4.14-19.461,15.541-34.841c2.714-3.648,11.818-4.138,14.606-9.143A111.147,111.147,0,0,0,213.816,11.01Z" transform="matrix(0.996, -0.087, 0.087, 0.996, 240.492, 222.405)" stroke="#c28ba9" stroke-width="1" fill="url(#linear-gradient-2)"/>
    <path id="Path_265" data-name="Path 265" d="M3670.559,1469.291s6.471,12.961,0,18.276-21.03-4.232-25.884,2.986,7.3,14.01,3.836,20.481-13.277-2.418-17.7,5.4,8.565,13.014,3.481,19.485-11.393-1.209-17.347,6.4,0,16.639-6.472,24.034-14.56-2.312-19.414,5.546,6.009,16.178,0,25.884-12.248,3.5-14.79,10.667,11.556,12.3,4.622,24.889-24.266,7.751-27.732,19.2,12.481,12.409,13.866,22.755-6.269,5.269-5.112,12.469,8.458,6.66,5.112,14.44-12.492,7.427-11.336,16.681c.676,5.414,12.624,10.907,13.2,23.155.334,6.391-13.8,15.631-11.95,27.636s16.812,7.905,19.334,20.167-9.466,16.042-7.385,24.648,15.014,4.565,15.705,13.943-13.463,4.233-10.975,14.689,11.848,7.7,12.946,15.187-11.529,7.058-12.946,15.188,12.691,6.678,8.964,14.939-24.192,7.967-26.891,19.171,2.7,24.816-1.494,29.379-13.553,2.529-18.174,12.7,3.61,14.789-1.351,29.887-16.237,10.416-15.082,22.9,14.778,13.27,19.7,24.648-4.852,14.365,0,21.661,10.049,2.568,14.9,10.457.458,17.133,5.976,22.408,13.244-1.984,18.425,3.236-.413,15.348,5.477,20.914,10.953.108,19.17,2.988a39.074,39.074,0,0,1,13.7,8.532s-1.754-12.732-8.225-21.977-13.244-5.241-17.66-15,2.505-15.092-3.5-21.1-16.555,1.71-20.532-5.726,9.245-7.318,4.623-18.176-18.787-9.747-19.943-20.913,12.441-8.557,14.192-18.425-10.648-10.746-9.212-20.167,15.341-4.621,17.927-12.7-10.016-10.606-4.979-19.668,20.535,1.138,25.893-6.473-7.278-15.207-4.465-23.974,12.5-7.079,13.429-12.625-13.77-1.393-9.73-9.561,21.574-12.46,23.423-23.553-13.385-9.913-13.693-20.665,14.888-12.134,12.457-22.341-20.568-8.447-22.187-20.234,18.258-17.18,15.715-26.912-21.831,2.652-23.912-5.205,13.689-13.222,13.2-24.4-16.427-8.687-17.677-17.926,9.58-10.5,10.207-19.419-11.089-9.918-11.4-17.677,6.915-7.4,6.915-14.44-10.5-8.56-6.915-15.686,12.091-4.463,14.634-13.445-6.974-14.671-3.237-21.909,14.563-2.9,18.186-10.208-8.331-14.186-3.247-22.408,19.748.04,25.645-6.971-5.459-14.3,1.421-24.648,18.189-6.562,26.1-16.761-.232-16.64,5.546-24.035,11.749.605,18.22-10.95c2.33-4.16.833-10.782,2.241-17.718a113.445,113.445,0,0,1,5.422-17.554Z" transform="translate(-3151.022 -1283.121)" stroke="#bf8aa6" stroke-width="1" fill="url(#linear-gradient-3)"/>
    <path id="Path_274" data-name="Path 274" d="M21.384-2.638l5.2,1.094s1.524,9.941-7.8,25.281c-2.845,4.681-20.124,15.146-32.013,33.08-17.5,26.4-34.692,72.074-34.5,96.231.084,10.728,2.512,31.337,8.374,53.081,5.24,19.439,14.459,43.384,18.606,68.677,3.959,24.145,3.625,34.681-6.567,64.3s-19.7,25.172-34.2,54.176S-77.94,466.609-77.94,466.609s-.576-42.205,12.421-73.329,21.916-23.49,32.724-51.194,13.04-33.392,9.6-62.6c-3.2-27.217-14.93-52.089-20-73.355A262.056,262.056,0,0,1-50.3,153.048c-.772-25.1,16.739-70.035,35.295-98.009,9.068-13.671,26.833-28.541,30.1-34.146C22.277,8.557,21.384-2.638,21.384-2.638Z" transform="translate(378 264)" fill="#fff" opacity="0.56"/>
    <path id="Path_275" data-name="Path 275" d="M7.284-12.579l11.1,5.086s-1.772,5.006-11.1,20.346C4.438,17.534-6.722,36.536-18.611,54.47c-17.5,26.4-24.769,58.614-24.58,82.771.084,10.728-2.031,47.145,3.831,68.888,5.24,19.439,10.591,43.616,14.738,68.909,3.959,24.145,6.527,34.78-2.7,64.341s-19.618,27.5-30.626,58.827S-74.774,435.9-73.27,464.147s12.039,36.117,21.889,50.345,43.5,47.062,43.5,47.062S-37.152,537.2-49.739,520.785s-25.514-23.668-26.814-53.628,1.5-37.827,14.5-68.951,23.217-35.078,29.257-56.119,9.012-22.779,5.474-51.412-10.8-63.28-15.87-84.547c-5.7-23.9-4.24-42.937-4.552-53.081-.772-25.1,6-73.841,24.552-101.815,9.068-13.671,16.573-37.4,19.839-43A183.288,183.288,0,0,0,7.284-12.579Z" transform="translate(468 264)" fill="#fff" opacity="0.51"/>
    <g id="Group_92" data-name="Group 92" transform="matrix(0.883, 0.469, -0.469, 0.883, -55.471, -313.087)">
      <path id="Path_277" data-name="Path 277" d="M-22.423-2.638l-2.728.78s-.8,7.087,4.093,18.024C-19.564,19.5-10.5,26.964-4.26,39.75,4.924,58.574,11.795,91.135,11.7,108.357c-.044,7.649.441,21.878,2.148,47.082s6.829,53.736,6.829,53.736-1.42,24.667-5.823,38.242c-1.646,5.074-2.338,10.551-4.61,13.187-3.213,3.729-8.081,3.4-10.19,6.264-7.036,9.56,7.7,22.356,0,30-4.35,4.318-12.387-2.237-17.712,0-4.73,1.987-4.878,12.117-8.96,14.289-8.382,4.459-6.591-6.595-16.344,0-2.975,2.011-1.569,10.74-4.859,14.555-7.13,8.267-18.362,13.024-18.362,13.024s12.574-4.184,20.018-11.974c4.2-4.394,3.6-13.737,5.853-14.405,6.074-1.8,10.244,5.741,15.682,1.05,3.222-2.78,2.109-11.588,6.972-13.572,5.995-2.446,15.775,5.7,20.866,0,3.405-3.81-1.922-18.719-1.213-26.374.655-7.076,7.355-5.907,9.705-9.89,5.909-10.012,6.129-17.538,7.521-23.407,2.123-8.943,3.01-15.481,4.125-28.352,1.68-19.4-8.726-38.574-6.066-53.736,2.99-17.042.728-30.659-2.426-56.7S6.41,58.426-3.327,38.482C-8.085,28.736-17.406,18.134-19.12,14.138A41.01,41.01,0,0,1-22.423-2.638Z" transform="translate(674.451 288.165)" fill="#fff" opacity="0.32"/>
      <path id="Path_278" data-name="Path 278" d="M-75.167-2.638l-2.728.782s-.8,7.106,4.093,18.071c1.493,3.346,10.559,10.826,16.8,23.645,9.184,18.872,18.2,51.518,18.1,68.785-.044,7.669-1.318,22.4-4.394,37.942-2.75,13.895-7.587,31.011-9.762,49.09-2.077,17.259-1.9,24.79,3.446,45.961s10.337,17.993,17.946,38.725,8.614,52.415,8.614,52.415.3-30.168-6.517-52.415-11.5-16.791-17.17-36.593-6.842-23.869-5.039-44.748c1.68-19.454,7.834-37.233,10.494-52.434a252.078,252.078,0,0,0,3.733-37.942c.405-17.943-8.783-50.061-18.519-70.057-4.758-9.772-14.079-20.4-15.793-24.408A41.213,41.213,0,0,1-75.167-2.638Z" transform="matrix(0.978, -0.208, 0.208, 0.978, 761.495, 257.21)" fill="#fff" opacity="0.56"/>
      <path id="Path_279" data-name="Path 279" d="M-71.018-12.579l-5.823,3.628s.93,3.57,5.823,14.512c1.493,3.339,7.349,16.892,13.587,29.683,9.184,18.832,13,41.807,12.9,59.036-.044,7.652,1.066,33.626-2.01,49.135-2.75,13.865-5.557,31.109-7.733,49.149-2.077,17.221-3.425,24.807,1.416,45.891s10.293,19.613,16.069,41.958,8.829,26.883,8.04,47.032-6.317,25.76-11.485,35.908S-63.064,396.92-63.064,396.92-47.7,379.552-41.1,367.842s13.387-16.881,14.069-38.25-.79-26.98-7.609-49.179-12.182-25.02-15.351-40.027-4.729-16.247-2.872-36.669,5.667-45.134,8.327-60.3c2.99-17.05,2.225-30.625,2.389-37.86.405-17.9-3.146-52.667-12.882-72.62-4.758-9.751-8.7-26.674-10.41-30.673A153.834,153.834,0,0,1-71.018-12.579Z" transform="translate(756.679 291)" fill="#fff" opacity="0.51"/>
      <path id="Path_280" data-name="Path 280" d="M-41.334-2.638l-1.549.494s-.454,4.486,2.324,11.408c.848,2.112,6,6.834,9.539,14.927C-25.8,36.1-21.9,56.713-21.959,67.614c-.025,4.841.25,13.847,1.22,29.8s3.878,34.011,3.878,34.011-.806,15.612-3.307,24.2c-.935,3.211-1.327,6.678-2.618,8.346-1.824,2.36-4.589,2.151-5.787,3.964-4,6.051,4.372,14.15,0,18.988-2.47,2.733-7.034-1.416-10.058,0-2.686,1.258-2.77,7.669-5.088,9.044-4.76,2.822-3.743-4.174-9.282,0-1.689,1.273-.891,6.8-2.759,9.212a32.5,32.5,0,0,1-10.427,8.243s7.141-2.648,11.368-7.579c2.384-2.781,2.044-8.695,3.324-9.117,3.449-1.14,5.817,3.634,8.905.665,1.83-1.76,1.2-7.334,3.959-8.59,3.4-1.548,8.958,3.606,11.849,0,1.934-2.412-1.091-11.848-.689-16.693.372-4.479,4.176-3.739,5.511-6.26,3.355-6.337,3.481-11.1,4.271-14.815a121.681,121.681,0,0,0,2.342-17.945c.954-12.281-4.955-24.415-3.445-34.011,1.7-10.787.413-19.405-1.378-35.889S-24.961,36.011-30.49,23.388c-2.7-6.169-8-12.879-8.968-15.408A28.637,28.637,0,0,1-41.334-2.638Z" transform="translate(670.851 251.573)" fill="#fff" opacity="0.32"/>
      <path id="Path_281" data-name="Path 281" d="M-61.53,130.573s2.318,15.513,9.5,24.05c2.686,3.191,3.815,6.636,7.524,8.293,5.244,2.345,13.189,2.137,16.631,3.939,11.484,6.013-12.566,14.06,0,18.867,7.1,2.716,20.217-1.407,28.907,0,7.72,1.25,7.962,7.621,14.623,8.986,13.681,2.8,10.757-4.147,26.675,0,4.855,1.265,2.56,6.755,7.93,9.154,11.637,5.2,29.967,8.191,29.967,8.191s-20.522-2.631-32.671-7.53c-6.853-2.763-5.875-8.639-9.553-9.06-9.913-1.132-16.719,3.611-25.594.661-5.259-1.749-3.442-7.288-11.379-8.536-9.784-1.538-25.746,3.583-34.055,0-5.557-2.4,3.136-11.773,1.98-16.587-1.069-4.45-12-3.715-15.839-6.22-9.643-6.3-10-11.03-12.275-14.721-3.465-5.625-4.913-9.736-6.732-17.83C-68.628,120.028-61.53,130.573-61.53,130.573Z" transform="matrix(0.946, 0.326, -0.326, 0.946, 922.899, 139.306)" fill="#fff" opacity="0.32"/>
      <path id="Path_282" data-name="Path 282" d="M-65.244-13.927-42.4-10.8s-3.947,66.679-3.779,77.45c.075,4.784-.746,13.683-3.633,29.446S-61.361,129.7-61.361,129.7s2.4,15.427,9.847,23.917c2.783,3.173,3.953,6.6,7.8,8.247,5.433,2.332,13.667,2.125,17.233,3.917,11.9,5.979-13.021,13.982,0,18.763,7.356,2.7,20.948-1.4,29.953,0,8,1.243,8.25,7.578,15.153,8.937,14.176,2.789,11.147-4.125,27.641,0,5.031,1.258,2.653,6.717,8.218,9.1,12.058,5.17,31.052,8.146,31.052,8.146s-21.265-2.617-33.854-7.489c-7.1-2.748-6.087-8.592-9.9-9.009-10.272-1.126-17.324,3.591-26.52.657-5.449-1.739-3.567-7.247-11.791-8.489-10.138-1.53-26.678,3.563-35.287,0-5.759-2.383,3.25-11.708,2.052-16.495-1.108-4.426-12.438-3.695-16.413-6.186-9.992-6.262-10.365-10.969-12.72-14.639-3.59-5.593-5.091-9.682-6.976-17.732-2.841-12.136,14.756-24.125,10.258-33.608C-60.673,87.085-62.473,75-57.139,58.711S-65.244-13.927-65.244-13.927Z" transform="translate(793.887 265.305) rotate(17)" fill="#fff" opacity="0.32"/>
    </g>
    <g id="Group_93" data-name="Group 93" transform="translate(641.859 629.813) rotate(172)">
      <path id="Path_277-2" data-name="Path 277" d="M43.765,341.373l-2.728-.78s-.8-7.087,4.093-18.024c1.493-3.337,10.559-10.8,16.8-23.584,9.184-18.823,16.055-51.385,15.955-68.607-.044-7.649.441-21.878,2.148-47.082S86.86,129.56,86.86,129.56s-1.42-24.667-5.823-38.242c-1.646-5.074-2.338-10.551-4.61-13.187-3.213-3.729-8.081-3.4-10.19-6.264-7.036-9.56,7.7-22.356,0-30-4.35-4.318-12.387,2.237-17.712,0-4.73-1.987-4.878-12.117-8.96-14.289-8.382-4.459-6.591,6.595-16.344,0-2.975-2.011-1.569-10.74-4.859-14.555C11.231,4.757,0,0,0,0S12.574,4.184,20.018,11.974c4.2,4.394,3.6,13.737,5.853,14.405,6.074,1.8,10.244-5.741,15.682-1.05,3.222,2.78,2.109,11.588,6.972,13.572,5.995,2.446,15.775-5.7,20.866,0,3.405,3.81-1.922,18.719-1.213,26.374.655,7.076,7.355,5.907,9.705,9.89C83.791,85.176,84.012,92.7,85.4,98.571c2.123,8.943,3.01,15.481,4.125,28.352,1.68,19.4-8.726,38.574-6.066,53.736,2.99,17.042.728,30.659-2.426,56.7S72.6,280.309,62.86,300.253C58.1,310,48.781,320.6,47.068,324.6A41.01,41.01,0,0,0,43.765,341.373Z" transform="translate(0 61.021)" fill="#fff" opacity="0.32"/>
      <path id="Path_278-2" data-name="Path 278" d="M2.776,335.417l-2.728-.782s-.8-7.106,4.093-18.071c1.493-3.346,10.559-10.826,16.8-23.645,9.184-18.872,18.2-51.518,18.1-68.785-.044-7.669-1.318-22.4-4.394-37.942C31.9,172.3,27.062,155.18,24.886,137.1c-2.077-17.259-1.9-24.79,3.446-45.961S38.668,73.147,46.277,52.415,54.891,0,54.891,0s.3,30.168-6.517,52.415S36.875,69.206,31.2,89.008s-6.842,23.869-5.039,44.748c1.68,19.454,7.834,37.233,10.494,52.434a252.078,252.078,0,0,1,3.733,37.942c.405,17.943-8.783,50.061-18.519,70.057-4.758,9.772-14.079,20.4-15.793,24.408A41.213,41.213,0,0,0,2.776,335.417Z" transform="translate(114.446 66.976)" fill="#fff" opacity="0.56"/>
      <path id="Path_279-2" data-name="Path 279" d="M5.823,409.5,0,405.872s.93-3.57,5.823-14.512c1.493-3.339,7.349-16.892,13.587-29.683,9.184-18.832,13-41.807,12.9-59.036-.044-7.652,1.066-33.626-2.01-49.135-2.75-13.865-5.557-31.109-7.733-49.149-2.077-17.221-3.425-24.807,1.416-45.891s10.293-19.613,16.069-41.958,8.829-26.883,8.04-47.032S41.772,43.715,36.6,33.567,13.777,0,13.777,0,29.138,17.369,35.743,29.078,49.13,45.959,49.812,67.328s-.79,26.98-7.609,49.179-12.182,25.02-15.351,40.027S22.123,172.781,23.98,193.2s5.667,45.134,8.327,60.3c2.99,17.05,2.225,30.625,2.389,37.86.405,17.9-3.146,52.667-12.882,72.62-4.758,9.751-8.7,26.674-10.41,30.673A153.833,153.833,0,0,0,5.823,409.5Z" transform="translate(71.575 0)" fill="#fff" opacity="0.51"/>
    </g>
  </g>
</svg>
