<svg xmlns="http://www.w3.org/2000/svg" xmlns:xlink="http://www.w3.org/1999/xlink" width="800" height="577" viewBox="0 0 800 577">
  <defs>
    <linearGradient id="linear-gradient" x1="0.247" y1="0.209" x2="0.839" y2="0.673" gradientUnits="objectBoundingBox">
      <stop offset="0" stop-color="#03dac6" stop-opacity="0.361"/>
      <stop offset="1" stop-color="#026d63" stop-opacity="0.122"/>
    </linearGradient>
  </defs>
  <g id="green_bubbles" data-name="green bubbles" transform="translate(-1053.503 -427)">
    <g id="Group_105" data-name="Group 105" transform="translate(-16 -184)">
      <g id="Group_95" data-name="Group 95" transform="translate(1730.126 611)">
        <g id="Ellipse_19" data-name="Ellipse 19" transform="translate(0.377)" stroke="#03dac6" stroke-width="1" fill="url(#linear-gradient)">
          <ellipse cx="14" cy="13" rx="14" ry="13" stroke="none"/>
          <ellipse cx="14" cy="13" rx="13.5" ry="12.5" fill="none"/>
        </g>
        <path id="Path_285" data-name="Path 285" d="M1.711-1.427s.6-5.2,3.67-7.379,8.374-1.988,8.374-1.988-4.59.341-7.661,2.516S1.711-1.427,1.711-1.427Z" transform="translate(3.105 15.024)" fill="#03dac6"/>
      </g>
      <g id="green-group-1" transform="translate(-22 14)">
        <g id="Group_68" data-name="Group 68" transform="translate(1744.396 710.182)">
          <g id="Ellipse_19-2" data-name="Ellipse 19" transform="translate(0.106 -0.182)" stroke="#03dac6" stroke-width="3" fill="url(#linear-gradient)">
            <circle cx="29.5" cy="29.5" r="29.5" stroke="none"/>
            <circle cx="29.5" cy="29.5" r="28" fill="none"/>
          </g>
          <path id="Path_285-2" data-name="Path 285" d="M1.711,9.61S2.918-1.725,9.111-6.46,26-10.79,26-10.79s-9.256.743-15.448,5.479S1.711,9.61,1.711,9.61Z" transform="translate(8 20)" fill="#03dac6"/>
        </g>
        <g id="Group_97" data-name="Group 97" transform="translate(1781.103 681.226)">
          <g id="Ellipse_19-3" data-name="Ellipse 19" transform="translate(0.4 -0.226)" stroke="#03dac6" stroke-width="2" fill="url(#linear-gradient)">
            <ellipse cx="30.5" cy="28.5" rx="30.5" ry="28.5" stroke="none"/>
            <ellipse cx="30.5" cy="28.5" rx="29.5" ry="27.5" fill="none"/>
          </g>
          <path id="Path_285-3" data-name="Path 285" d="M1.711,8.894S2.969-2.043,9.422-6.613s17.6-4.178,17.6-4.178-9.646.717-16.1,5.287S1.711,8.894,1.711,8.894Z" transform="translate(8.409 19.677)" fill="#03dac6"/>
        </g>
        <g id="Group_99" data-name="Group 99" transform="translate(1769.913 651.294)">
          <g id="Ellipse_19-4" data-name="Ellipse 19" transform="translate(-0.41 -0.294)" stroke="#03dac6" stroke-width="1" fill="url(#linear-gradient)">
            <ellipse cx="20" cy="18.5" rx="20" ry="18.5" stroke="none"/>
            <ellipse cx="20" cy="18.5" rx="19.5" ry="18" fill="none"/>
          </g>
          <path id="Path_285-4" data-name="Path 285" d="M1.711,2.062S2.532-5.081,6.747-8.065s11.492-2.728,11.492-2.728-6.3.468-10.514,3.453S1.711,2.062,1.711,2.062Z" transform="translate(4.898 16.597)" fill="#03dac6"/>
        </g>
      </g>
      <g id="green-group-2" transform="translate(-29 14)">
        <g id="Group_98" data-name="Group 98" transform="translate(1824.619 811.317)">
          <g id="Ellipse_19-5" data-name="Ellipse 19" transform="translate(-0.116 -0.317)" stroke="#03dac6" stroke-width="2" fill="url(#linear-gradient)">
            <ellipse cx="30.5" cy="28.5" rx="30.5" ry="28.5" stroke="none"/>
            <ellipse cx="30.5" cy="28.5" rx="29.5" ry="27.5" fill="none"/>
          </g>
          <path id="Path_285-5" data-name="Path 285" d="M1.711,8.894S2.969-2.043,9.422-6.613s17.6-4.178,17.6-4.178-9.646.717-16.1,5.287S1.711,8.894,1.711,8.894Z" transform="translate(8.409 19.677)" fill="#03dac6"/>
        </g>
        <g id="Group_100" data-name="Group 100" transform="translate(1791.237 857.407)">
          <g id="Ellipse_19-6" data-name="Ellipse 19" transform="translate(0.266 -0.407)" stroke="#03dac6" stroke-width="3" fill="url(#linear-gradient)">
            <circle cx="29.5" cy="29.5" r="29.5" stroke="none"/>
            <circle cx="29.5" cy="29.5" r="28" fill="none"/>
          </g>
          <path id="Path_285-6" data-name="Path 285" d="M1.711,9.61S2.918-1.725,9.111-6.46,26-10.79,26-10.79s-9.256.743-15.448,5.479S1.711,9.61,1.711,9.61Z" transform="translate(8 20)" fill="#03dac6"/>
        </g>
        <g id="Group_101" data-name="Group 101" transform="translate(1789.806 811.317)">
          <g id="Ellipse_19-7" data-name="Ellipse 19" transform="translate(-0.303 -0.317)" stroke="#03dac6" stroke-width="1" fill="url(#linear-gradient)">
            <ellipse cx="20" cy="18.5" rx="20" ry="18.5" stroke="none"/>
            <ellipse cx="20" cy="18.5" rx="19.5" ry="18" fill="none"/>
          </g>
          <path id="Path_285-7" data-name="Path 285" d="M1.711,2.062S2.532-5.081,6.747-8.065s11.492-2.728,11.492-2.728-6.3.468-10.514,3.453S1.711,2.062,1.711,2.062Z" transform="translate(4.898 16.597)" fill="#03dac6"/>
        </g>
      </g>
      <g id="Group_102" data-name="Group 102" transform="translate(1840.783 750.301)">
        <g id="Ellipse_19-8" data-name="Ellipse 19" transform="translate(-0.28 -0.301)" stroke="#03dac6" stroke-width="1" fill="url(#linear-gradient)">
          <ellipse cx="14.5" cy="13.5" rx="14.5" ry="13.5" stroke="none"/>
          <ellipse cx="14.5" cy="13.5" rx="14" ry="13" fill="none"/>
        </g>
        <path id="Path_285-8" data-name="Path 285" d="M1.711-1.427s.6-5.2,3.67-7.379,8.374-1.988,8.374-1.988-4.59.341-7.661,2.516S1.711-1.427,1.711-1.427Z" transform="translate(3.105 15.024)" fill="#03dac6"/>
      </g>
      <g id="Group_103" data-name="Group 103" transform="translate(1683.666 811.199)">
        <g id="Ellipse_19-9" data-name="Ellipse 19" transform="translate(-0.163 -0.199)" stroke="#03dac6" stroke-width="1" fill="url(#linear-gradient)">
          <ellipse cx="14.5" cy="13.5" rx="14.5" ry="13.5" stroke="none"/>
          <ellipse cx="14.5" cy="13.5" rx="14" ry="13" fill="none"/>
        </g>
        <path id="Path_285-9" data-name="Path 285" d="M1.711-1.427s.6-5.2,3.67-7.379,8.374-1.988,8.374-1.988-4.59.341-7.661,2.516S1.711-1.427,1.711-1.427Z" transform="translate(3.105 15.024)" fill="#03dac6"/>
      </g>
      <g id="Group_104" data-name="Group 104" transform="translate(1700.503 929.996)">
        <g id="Ellipse_19-10" data-name="Ellipse 19" transform="translate(0 0.004)" stroke="#03dac6" stroke-width="2" fill="url(#linear-gradient)">
          <ellipse cx="30.5" cy="28" rx="30.5" ry="28" stroke="none"/>
          <ellipse cx="30.5" cy="28" rx="29.5" ry="27" fill="none"/>
        </g>
        <path id="Path_285-10" data-name="Path 285" d="M1.711,8.894S2.969-2.043,9.422-6.613s17.6-4.178,17.6-4.178-9.646.717-16.1,5.287S1.711,8.894,1.711,8.894Z" transform="translate(8.409 19.677)" fill="#03dac6"/>
      </g>
    </g>
    <g id="Group_106" data-name="Group 106" transform="translate(-627 111)">
      <g id="Group_95-2" data-name="Group 95" transform="translate(1725.503 611)">
        <g id="Ellipse_19-11" data-name="Ellipse 19" stroke="#03dac6" stroke-width="1" fill="url(#linear-gradient)">
          <circle cx="11.5" cy="11.5" r="11.5" stroke="none"/>
          <circle cx="11.5" cy="11.5" r="11" fill="none"/>
        </g>
        <path id="Path_285-11" data-name="Path 285" d="M1.711-2.659s.481-4.521,2.951-6.41S11.4-10.8,11.4-10.8A13.431,13.431,0,0,0,5.236-8.61C2.765-6.721,1.711-2.659,1.711-2.659Z" transform="translate(2.162 14.469)" fill="#03dac6"/>
      </g>
      <g id="green-group-3">
        <g id="Group_68-2" data-name="Group 68" transform="translate(1759.503 685)">
          <g id="Ellipse_19-12" data-name="Ellipse 19" stroke="#03dac6" stroke-width="3" fill="url(#linear-gradient)">
            <circle cx="29.5" cy="29.5" r="29.5" stroke="none"/>
            <circle cx="29.5" cy="29.5" r="28" fill="none"/>
          </g>
          <path id="Path_285-12" data-name="Path 285" d="M1.711,9.61S2.918-1.725,9.111-6.46,26-10.79,26-10.79s-9.256.743-15.448,5.479S1.711,9.61,1.711,9.61Z" transform="translate(8 20)" fill="#03dac6"/>
        </g>
        <g id="Group_97-2" data-name="Group 97" transform="translate(1740.503 665)">
          <g id="Ellipse_19-13" data-name="Ellipse 19" stroke="#03dac6" stroke-width="2" fill="url(#linear-gradient)">
            <circle cx="24.5" cy="24.5" r="24.5" stroke="none"/>
            <circle cx="24.5" cy="24.5" r="23.5" fill="none"/>
          </g>
          <path id="Path_285-13" data-name="Path 285" d="M1.711,6.307s1.012-9.5,6.2-13.47,14.153-3.629,14.153-3.629S14.308-10.168,9.118-6.2,1.711,6.307,1.711,6.307Z" transform="translate(6.429 18.511)" fill="#03dac6"/>
        </g>
        <g id="Group_99-2" data-name="Group 99" transform="translate(1768.503 640)">
          <g id="Ellipse_19-14" data-name="Ellipse 19" stroke="#03dac6" stroke-width="1" fill="url(#linear-gradient)">
            <circle cx="16" cy="16" r="16" stroke="none"/>
            <circle cx="16" cy="16" r="15.5" fill="none"/>
          </g>
          <path id="Path_285-14" data-name="Path 285" d="M1.711.373s.661-6.2,4.05-8.8S15-10.794,15-10.794s-5.066.407-8.456,3S1.711.373,1.711.373Z" transform="translate(3.605 15.835)" fill="#03dac6"/>
        </g>
      </g>
      <g id="green-group-4">
        <g id="Group_98-2" data-name="Group 98" transform="translate(1680.503 783)">
          <g id="Ellipse_19-15" data-name="Ellipse 19" stroke="#03dac6" stroke-width="2" fill="url(#linear-gradient)">
            <circle cx="24.5" cy="24.5" r="24.5" stroke="none"/>
            <circle cx="24.5" cy="24.5" r="23.5" fill="none"/>
          </g>
          <path id="Path_285-15" data-name="Path 285" d="M1.711,6.307s1.012-9.5,6.2-13.47,14.153-3.629,14.153-3.629S14.308-10.168,9.118-6.2,1.711,6.307,1.711,6.307Z" transform="translate(6.429 18.511)" fill="#03dac6"/>
        </g>
        <g id="Group_100-2" data-name="Group 100" transform="translate(1704.503 814)">
          <g id="Ellipse_19-16" data-name="Ellipse 19" stroke="#03dac6" stroke-width="3" fill="url(#linear-gradient)">
            <circle cx="29.5" cy="29.5" r="29.5" stroke="none"/>
            <circle cx="29.5" cy="29.5" r="28" fill="none"/>
          </g>
          <path id="Path_285-16" data-name="Path 285" d="M1.711,9.61S2.918-1.725,9.111-6.46,26-10.79,26-10.79s-9.256.743-15.448,5.479S1.711,9.61,1.711,9.61Z" transform="translate(8 20)" fill="#03dac6"/>
        </g>
        <g id="Group_101-2" data-name="Group 101" transform="translate(1724.503 787)">
          <g id="Ellipse_19-17" data-name="Ellipse 19" stroke="#03dac6" stroke-width="1" fill="url(#linear-gradient)">
            <circle cx="16" cy="16" r="16" stroke="none"/>
            <circle cx="16" cy="16" r="15.5" fill="none"/>
          </g>
          <path id="Path_285-17" data-name="Path 285" d="M1.711.373s.661-6.2,4.05-8.8S15-10.794,15-10.794s-5.066.407-8.456,3S1.711.373,1.711.373Z" transform="translate(3.605 15.835)" fill="#03dac6"/>
        </g>
      </g>
      <g id="Group_102-2" data-name="Group 102" transform="translate(1820.503 760)">
        <g id="Ellipse_19-18" data-name="Ellipse 19" stroke="#03dac6" stroke-width="1" fill="url(#linear-gradient)">
          <circle cx="11.5" cy="11.5" r="11.5" stroke="none"/>
          <circle cx="11.5" cy="11.5" r="11" fill="none"/>
        </g>
        <path id="Path_285-18" data-name="Path 285" d="M1.711-2.659s.481-4.521,2.951-6.41S11.4-10.8,11.4-10.8A13.431,13.431,0,0,0,5.236-8.61C2.765-6.721,1.711-2.659,1.711-2.659Z" transform="translate(2.162 14.469)" fill="#03dac6"/>
      </g>
      <g id="green-single-s" transform="translate(1701.503 744)">
        <g id="Ellipse_19-19" data-name="Ellipse 19" stroke="#03dac6" stroke-width="1" fill="url(#linear-gradient)">
          <circle cx="11.5" cy="11.5" r="11.5" stroke="none"/>
          <circle cx="11.5" cy="11.5" r="11" fill="none"/>
        </g>
        <path id="Path_285-19" data-name="Path 285" d="M1.711-2.659s.481-4.521,2.951-6.41S11.4-10.8,11.4-10.8A13.431,13.431,0,0,0,5.236-8.61C2.765-6.721,1.711-2.659,1.711-2.659Z" transform="translate(2.162 14.469)" fill="#03dac6"/>
      </g>
      <g id="green-single-l" transform="translate(1901.503 814)">
        <g id="Ellipse_19-20" data-name="Ellipse 19" stroke="#03dac6" stroke-width="3" fill="url(#linear-gradient)">
          <circle cx="29.5" cy="29.5" r="29.5" stroke="none"/>
          <circle cx="29.5" cy="29.5" r="28" fill="none"/>
        </g>
        <path id="Path_285-20" data-name="Path 285" d="M1.711,9.61S2.918-1.725,9.111-6.46,26-10.79,26-10.79s-9.256.743-15.448,5.479S1.711,9.61,1.711,9.61Z" transform="translate(8 20)" fill="#03dac6"/>
      </g>
      <g id="green-single-m" transform="translate(1807.503 844)">
        <g id="Ellipse_19-21" data-name="Ellipse 19" stroke="#03dac6" stroke-width="2" fill="url(#linear-gradient)">
          <circle cx="24.5" cy="24.5" r="24.5" stroke="none"/>
          <circle cx="24.5" cy="24.5" r="23.5" fill="none"/>
        </g>
        <path id="Path_285-21" data-name="Path 285" d="M1.711,6.307s1.012-9.5,6.2-13.47,14.153-3.629,14.153-3.629S14.308-10.168,9.118-6.2,1.711,6.307,1.711,6.307Z" transform="translate(6.429 18.511)" fill="#03dac6"/>
      </g>
    </g>
  </g>
</svg>
