<svg xmlns="http://www.w3.org/2000/svg" xmlns:xlink="http://www.w3.org/1999/xlink" width="538.439" height="899.095" viewBox="0 0 538.439 899.095">
  <defs>
    <linearGradient id="linear-gradient" x1="0.593" y1="0.118" x2="0.323" y2="0.896" gradientUnits="objectBoundingBox">
      <stop offset="0" stop-color="#fb54aa"/>
      <stop offset="0.243" stop-color="#ff81c3"/>
      <stop offset="0.686" stop-color="#feb8dc"/>
      <stop offset="1" stop-color="#ffe8f3"/>
    </linearGradient>
    <radialGradient id="radial-gradient" cx="0.543" cy="0.707" r="0.633" gradientTransform="translate(0 -0.136) scale(1 1.193)" gradientUnits="objectBoundingBox">
      <stop offset="0" stop-color="#ff77be"/>
      <stop offset="0.612" stop-color="#f877ba"/>
      <stop offset="1" stop-color="#b27294"/>
    </radialGradient>
    <radialGradient id="radial-gradient-2" cx="0.489" cy="0.539" r="0.569" gradientTransform="matrix(0.455, -0.891, 0.803, 0.41, -0.167, 0.754)" gradientUnits="objectBoundingBox">
      <stop offset="0" stop-color="#feb3da" stop-opacity="0.678"/>
      <stop offset="0.697" stop-color="#e9a7c9" stop-opacity="0.569"/>
      <stop offset="1" stop-color="#f8f1f5"/>
    </radialGradient>
  </defs>
  <g id="jelly-head" transform="translate(70.223 -10.587)">
    <g id="kopia">
      <path id="Path_284" data-name="Path 284" d="M79.833,17.94C-19.9,67.394-1.638,160.649,7.492,185.376S37.517,233.77,70,240.482s44.247-19.605,67.424-28.26,31.43,2.826,50.569-6.358,16.5-21.9,32.308-31.085,38.1,3.885,49.164-24.727,15.45-63.583-4.916-89.723S179.565-31.515,79.833,17.94Z" transform="matrix(0.809, 0.588, -0.588, 0.809, 183.193, 65.09)" fill="#8e5a75" stroke="#8e5a75" stroke-width="3"/>
      <path id="Union_3" data-name="Union 3" d="M-2756.444-3.664c-18.31-30.5-25.994-69.165-25.694-96.116.635-57.1,44.413-123.395,55.833-159.557s-5.08-101.51,1.9-145.6,32.152-73.088,43.844-99.164a167.865,167.865,0,0,0,9.229-26.45,50.293,50.293,0,0,0-17.165-8.261,53.044,53.044,0,0,0-10.149-1.732c-10.57,24.212-27.774,59.821-52.4,86.439-31.4,33.942-74.863,44.41-125.3,118.638q-5.578,8.209-10.259,16.146c13.291,42.761,40.4,80.957,50.589,93.5-10.442-11.781-38.994-46.245-54.37-86.913-35.178,63.274-29.857,111.916-22.756,129.527,3.624,8.987,12.521,37.006,33.157,50.437,25.059,16.308,62.133,17.565,62.133,19.041,0,0-37.838,3.767-68.326-15.87-16.937-10.908-31.314-35.429-36.8-55.83-13.364-49.719,1.915-93.569,28.962-137.839a143.516,143.516,0,0,1-6.02-29.413c-6.075-66.791-4.513-92.87,38.5-135.472,40.512-40.122,80.376-39.269,117.257-56.479a44.761,44.761,0,0,1-14.638-10.933c-22.155-24.269-25.2-55.3-18.2-80.329s46.358-109.987,154.95-91.31,122.35,108.679,123.542,141.376-22.576,58.012-48.013,74.373c-13.552,8.717-22.808,6.147-31.221,1.556l-15.989,51.059s-21.534,81.257,6.862,130.809,83.61,63.146,105.737,111.233,5.591,97.985,5.591,97.985,8.018-67.469-16.725-102.521-63.506-58.145-80-75.053-39.068-37.893-40.826-92.786c-1.472-45.947,17.722-108.3,24.017-127.4a40.223,40.223,0,0,0-5.152-2.368c-18.69,31.748-66.925,124.5-51.363,213.192,8.012,45.658,19.363,103.613,45.568,139.92,36.692,50.836,89.527,72.372,89.527,72.372s-56.126-16.971-97.569-72.372c-23.281-31.121-37.816-87.677-45.568-127.054-17.444-88.623,29.48-190.913,48.6-227.7-5.891.155-10.389,1.806-14.94,3.458-5.073,1.841-10.214,3.682-17.431,3.451-1.6,9.091-3.517,16.7-4.4,21.4-3.336,17.851-10.794,38.1-17.927,62.879s-9.852,41.413-10.309,72.668c-.509,34.86,7.835,76.384,13.685,90.406,11.143,26.709,20.688,60.452,18.7,79.061-3.015,28.2-20.953,52.091-21.473,78.083-.743,37.129,23.364,66.37,26.149,68.649-2.74-1.578-27.278-16.88-32.452-61.511-2.988-25.771,14.907-57.111,19.777-82.407,4.128-21.442-10.744-56.814-24.385-103.127s-8.411-104.274-3.267-125.935c4.89-20.585,23.888-85.382,27.21-101.325a36.5,36.5,0,0,1-16.035-8.161c-3.677,11.894-7.764,23.8-11.715,28.915-16.178,20.936-36.05,67.867-38.7,79.938-11.3,51.464,10.532,110.448-3.492,162.412-13.932,51.621-50.2,81.127-57.415,145.283s28.231,109.756,28.231,109.756l40.12,50.653S-2736.275,29.93-2756.444-3.664Zm-42.82-513.958c-23.12,8.358-42.506,20.239-56.566,33.749-51.413,49.4-42.675,62.145-38.027,127.867a152.319,152.319,0,0,0,4.2,25.763q4.651-7.3,9.673-14.64c35.361-51.808,99.091-88.537,133.7-127.939,15.369-19.089,24.557-37.486,31.72-51.706,3-5.947,5.551-11.374,7.726-16.273-2.236.014-4.474.076-6.71.137-7.184.2-14.353.4-21.408-1.007C-2760.408-528.322-2785.3-522.671-2799.264-517.622Zm166.167,477.1c.163.094.249.139.249.139a.03.03,0,0,1-.016,0A.564.564,0,0,1-2633.1-40.522Zm-202.921-185.3c2.495,2.815,3.955,4.335,3.955,4.335C-2832.3-221.485-2833.736-223.009-2836.018-225.819Z" transform="translate(2858.39 855.12)" stroke="#8e5a75" stroke-width="1.5" fill="url(#linear-gradient)"/>
      <path id="Path_283" data-name="Path 283" d="M78.32,17.493C-19.523,65.714-1.607,156.645,7.35,180.755s29.456,47.188,61.324,53.732,43.408-19.116,66.146-27.555,30.834,2.756,49.61-6.2,16.192-21.355,31.7-30.31,37.38,3.789,48.232-24.111,15.157-62-4.823-87.486S176.161-30.729,78.32,17.493Z" transform="matrix(0.809, 0.588, -0.588, 0.809, 183.837, 69.358)" stroke="#ff77be" stroke-width="1.5" fill="url(#radial-gradient)"/>
    </g>
    <g id="Group_90" data-name="Group 90" transform="translate(-263.894 44)">
      <g id="Group_88" data-name="Group 88" transform="translate(-19 35.631)">
        <g id="Ellipse_44" data-name="Ellipse 44" transform="translate(413.262 169.042) rotate(13)" fill="#fff" stroke="#c675a1" stroke-width="3">
          <ellipse cx="17" cy="16.5" rx="17" ry="16.5" stroke="none"/>
          <ellipse cx="17" cy="16.5" rx="15.5" ry="15" fill="none"/>
        </g>
        <circle id="Ellipse_45" data-name="Ellipse 45" cx="10.5" cy="10.5" r="10.5" transform="translate(416 179)" fill="#854869"/>
      </g>
      <g id="Group_89" data-name="Group 89" transform="translate(104 64.631)">
        <g id="Ellipse_44-2" data-name="Ellipse 44" transform="translate(413.262 169.042) rotate(13)" fill="#fff" stroke="#c675a1" stroke-width="3">
          <ellipse cx="17" cy="16.5" rx="17" ry="16.5" stroke="none"/>
          <ellipse cx="17" cy="16.5" rx="15.5" ry="15" fill="none"/>
        </g>
        <circle id="Ellipse_45-2" data-name="Ellipse 45" cx="10.5" cy="10.5" r="10.5" transform="translate(416 179)" fill="#854869"/>
        <circle id="Ellipse_46" data-name="Ellipse 46" cx="2" cy="2" r="2" transform="translate(299 154.369)" fill="#fff"/>
        <circle id="Ellipse_47" data-name="Ellipse 47" cx="2" cy="2" r="2" transform="translate(421 183.369)" fill="#fff"/>
      </g>
    </g>
    <path id="Path_263" data-name="Path 263" d="M186.495,264.371c13.336-7.478,26.021,5.834,43.665-2.987s17.3-27.049,26.91-32.3,25.248,3.279,34.382,0,5.483-13.064,18.15-19.85,15.976,6.076,30.948-5.848c6.214-4.949,4.2-17.756,3.045-26.841s19.177-23.359,11.819-57.231c-5.489-37.458-36.82-65.76-36.82-65.76S218.271-42.653,91.839,22.828,4.12,236.155,10.709,249.745s28.25,51.749,51.478,58.056c19.322,5.257,40.769-2.554,40.769-2.554s17,6.892,26.806,2.554,11.7-19.125,19.007-19.856,15.667,12.229,25.1,6.336S173.16,271.848,186.495,264.371Z" transform="matrix(0.809, 0.588, -0.588, 0.809, 177.99, 12)" stroke="#fff" stroke-width="2" opacity="0.59" fill="url(#radial-gradient-2)"/>
  </g>
</svg>
