<svg xmlns="http://www.w3.org/2000/svg" xmlns:xlink="http://www.w3.org/1999/xlink" width="680" height="775" viewBox="0 0 680 775">
  <defs>
    <linearGradient id="linear-gradient" x1="0.256" y1="0.236" x2="0.828" y2="0.801" gradientUnits="objectBoundingBox">
      <stop offset="0" stop-color="#ff77be" stop-opacity="0.322"/>
      <stop offset="1" stop-color="#803c5f" stop-opacity="0.239"/>
    </linearGradient>
  </defs>
  <g id="pink_bubbles" data-name="pink bubbles" transform="translate(-60.503 -246)">
    <g id="Group_161" data-name="Group 161">
      <g id="ping-group-3" transform="translate(-221 -26)">
        <g id="Group_69" data-name="Group 69" transform="translate(498.503 751)">
          <g id="Ellipse_17" data-name="Ellipse 17" transform="translate(135 193)" stroke="#ff77be" stroke-width="3" fill="url(#linear-gradient)">
            <circle cx="30.5" cy="30.5" r="30.5" stroke="none"/>
            <circle cx="30.5" cy="30.5" r="29" fill="none"/>
          </g>
          <path id="Path_286" data-name="Path 286" d="M1.711,9.61S2.918-1.725,9.111-6.46,26-10.79,26-10.79s-9.256.743-15.448,5.479S1.711,9.61,1.711,9.61Z" transform="translate(144 212.094)" fill="#ff77be"/>
        </g>
        <g id="Group_94" data-name="Group 94" transform="translate(500.503 719)">
          <g id="Ellipse_17-2" data-name="Ellipse 17" transform="translate(135 193)" stroke="#ff77be" stroke-width="1" fill="url(#linear-gradient)">
            <circle cx="16" cy="16" r="16" stroke="none"/>
            <circle cx="16" cy="16" r="15.5" fill="none"/>
          </g>
          <path id="Path_286-2" data-name="Path 286" d="M1.711-.042s.636-5.974,3.9-8.47,8.9-2.282,8.9-2.282S9.632-10.4,6.368-7.906,1.711-.042,1.711-.042Z" transform="translate(138.934 208.171)" fill="#ff77be"/>
        </g>
        <g id="Group_96" data-name="Group 96" transform="translate(526.503 718)">
          <g id="Ellipse_17-3" data-name="Ellipse 17" transform="translate(135 193)" stroke="#ff77be" stroke-width="2" fill="url(#linear-gradient)">
            <circle cx="24.5" cy="24.5" r="24.5" stroke="none"/>
            <circle cx="24.5" cy="24.5" r="23.5" fill="none"/>
          </g>
          <path id="Path_286-3" data-name="Path 286" d="M1.711,5.758s.979-9.2,6-13.037,13.7-3.512,13.7-3.512-7.509.6-12.533,4.445S1.711,5.758,1.711,5.758Z" transform="translate(141.978 210.529)" fill="#ff77be"/>
        </g>
      </g>
      <g id="ping-group-1" transform="translate(-248 -678)">
        <g id="Group_116" data-name="Group 116">
          <g id="Group_107" data-name="Group 107" transform="translate(307.503 781)">
            <g id="Ellipse_17-4" data-name="Ellipse 17" transform="translate(135 193)" stroke="#ff77be" stroke-width="3" fill="url(#linear-gradient)">
              <circle cx="30.5" cy="30.5" r="30.5" stroke="none"/>
              <circle cx="30.5" cy="30.5" r="29" fill="none"/>
            </g>
            <path id="Path_286-4" data-name="Path 286" d="M1.711,9.61S2.918-1.725,9.111-6.46,26-10.79,26-10.79s-9.256.743-15.448,5.479S1.711,9.61,1.711,9.61Z" transform="translate(144 212.094)" fill="#ff77be"/>
          </g>
          <g id="Group_108" data-name="Group 108" transform="translate(322.503 735)">
            <g id="Ellipse_17-5" data-name="Ellipse 17" transform="translate(135 193)" stroke="#ff77be" stroke-width="1" fill="url(#linear-gradient)">
              <circle cx="16" cy="16" r="16" stroke="none"/>
              <circle cx="16" cy="16" r="15.5" fill="none"/>
            </g>
            <path id="Path_286-5" data-name="Path 286" d="M1.711-.042s.636-5.974,3.9-8.47,8.9-2.282,8.9-2.282S9.632-10.4,6.368-7.906,1.711-.042,1.711-.042Z" transform="translate(138.934 208.171)" fill="#ff77be"/>
          </g>
          <g id="Group_109" data-name="Group 109" transform="translate(289.503 751)">
            <g id="Ellipse_17-6" data-name="Ellipse 17" transform="translate(135 193)" stroke="#ff77be" stroke-width="2" fill="url(#linear-gradient)">
              <circle cx="24.5" cy="24.5" r="24.5" stroke="none"/>
              <circle cx="24.5" cy="24.5" r="23.5" fill="none"/>
            </g>
            <path id="Path_286-6" data-name="Path 286" d="M1.711,5.758s.979-9.2,6-13.037,13.7-3.512,13.7-3.512-7.509.6-12.533,4.445S1.711,5.758,1.711,5.758Z" transform="translate(141.978 210.529)" fill="#ff77be"/>
          </g>
        </g>
      </g>
      <g id="ping-group-2" transform="translate(-110 -484)">
        <g id="Group_110" data-name="Group 110" transform="translate(75.503 745)">
          <g id="Ellipse_17-7" data-name="Ellipse 17" transform="translate(135 193)" stroke="#ff77be" stroke-width="3" fill="url(#linear-gradient)">
            <circle cx="30.5" cy="30.5" r="30.5" stroke="none"/>
            <circle cx="30.5" cy="30.5" r="29" fill="none"/>
          </g>
          <path id="Path_286-7" data-name="Path 286" d="M1.711,9.61S2.918-1.725,9.111-6.46,26-10.79,26-10.79s-9.256.743-15.448,5.479S1.711,9.61,1.711,9.61Z" transform="translate(144 212.094)" fill="#ff77be"/>
        </g>
        <g id="Group_111" data-name="Group 111" transform="translate(104.503 711)">
          <g id="Ellipse_17-8" data-name="Ellipse 17" transform="translate(135 193)" stroke="#ff77be" stroke-width="1" fill="url(#linear-gradient)">
            <circle cx="16" cy="16" r="16" stroke="none"/>
            <circle cx="16" cy="16" r="15.5" fill="none"/>
          </g>
          <path id="Path_286-8" data-name="Path 286" d="M1.711-.042s.636-5.974,3.9-8.47,8.9-2.282,8.9-2.282S9.632-10.4,6.368-7.906,1.711-.042,1.711-.042Z" transform="translate(138.934 208.171)" fill="#ff77be"/>
        </g>
        <g id="Group_112" data-name="Group 112" transform="translate(56.503 711)">
          <g id="Ellipse_17-9" data-name="Ellipse 17" transform="translate(135 193)" stroke="#ff77be" stroke-width="2" fill="url(#linear-gradient)">
            <circle cx="24.5" cy="24.5" r="24.5" stroke="none"/>
            <circle cx="24.5" cy="24.5" r="23.5" fill="none"/>
          </g>
          <path id="Path_286-9" data-name="Path 286" d="M1.711,5.758s.979-9.2,6-13.037,13.7-3.512,13.7-3.512-7.509.6-12.533,4.445S1.711,5.758,1.711,5.758Z" transform="translate(141.978 210.529)" fill="#ff77be"/>
        </g>
      </g>
      <g id="ping-group-4" transform="translate(524 641)">
        <g id="Group_113" data-name="Group 113" transform="translate(-9.497 126)">
          <g id="Ellipse_17-10" data-name="Ellipse 17" transform="translate(135 193)" stroke="#ff77be" stroke-width="3" fill="url(#linear-gradient)">
            <circle cx="30.5" cy="30.5" r="30.5" stroke="none"/>
            <circle cx="30.5" cy="30.5" r="29" fill="none"/>
          </g>
          <path id="Path_286-10" data-name="Path 286" d="M1.711,9.61S2.918-1.725,9.111-6.46,26-10.79,26-10.79s-9.256.743-15.448,5.479S1.711,9.61,1.711,9.61Z" transform="translate(144 212.094)" fill="#ff77be"/>
        </g>
        <g id="Group_114" data-name="Group 114" transform="translate(24.503 70)">
          <g id="Ellipse_17-11" data-name="Ellipse 17" transform="translate(135 193)" stroke="#ff77be" stroke-width="1" fill="url(#linear-gradient)">
            <circle cx="16" cy="16" r="16" stroke="none"/>
            <circle cx="16" cy="16" r="15.5" fill="none"/>
          </g>
          <path id="Path_286-11" data-name="Path 286" d="M1.711-.042s.636-5.974,3.9-8.47,8.9-2.282,8.9-2.282S9.632-10.4,6.368-7.906,1.711-.042,1.711-.042Z" transform="translate(138.934 208.171)" fill="#ff77be"/>
        </g>
        <g id="Group_115" data-name="Group 115" transform="translate(32.503 102)">
          <g id="Ellipse_17-12" data-name="Ellipse 17" transform="translate(135 193)" stroke="#ff77be" stroke-width="2" fill="url(#linear-gradient)">
            <circle cx="24.5" cy="24.5" r="24.5" stroke="none"/>
            <circle cx="24.5" cy="24.5" r="23.5" fill="none"/>
          </g>
          <path id="Path_286-12" data-name="Path 286" d="M1.711,5.758s.979-9.2,6-13.037,13.7-3.512,13.7-3.512-7.509.6-12.533,4.445S1.711,5.758,1.711,5.758Z" transform="translate(141.978 210.529)" fill="#ff77be"/>
        </g>
      </g>
      <g id="Group_124" data-name="Group 124" transform="translate(446.503 769)">
        <g id="Ellipse_17-13" data-name="Ellipse 17" transform="translate(135 193)" stroke="#ff77be" stroke-width="1" fill="url(#linear-gradient)">
          <circle cx="12.5" cy="12.5" r="12.5" stroke="none"/>
          <circle cx="12.5" cy="12.5" r="12" fill="none"/>
        </g>
        <path id="Path_286-13" data-name="Path 286" d="M1.711-2.309s.5-4.715,3.078-6.685,7.024-1.8,7.024-1.8A14.007,14.007,0,0,0,5.387-8.516C2.811-6.546,1.711-2.309,1.711-2.309Z" transform="translate(137.745 207.249)" fill="#ff77be"/>
      </g>
      <g id="Group_125" data-name="Group 125" transform="translate(509.503 664)">
        <g id="Ellipse_17-14" data-name="Ellipse 17" transform="translate(135 193)" stroke="#ff77be" stroke-width="1" fill="url(#linear-gradient)">
          <circle cx="12.5" cy="12.5" r="12.5" stroke="none"/>
          <circle cx="12.5" cy="12.5" r="12" fill="none"/>
        </g>
        <path id="Path_286-14" data-name="Path 286" d="M1.711-2.309s.5-4.715,3.078-6.685,7.024-1.8,7.024-1.8A14.007,14.007,0,0,0,5.387-8.516C2.811-6.546,1.711-2.309,1.711-2.309Z" transform="translate(137.745 207.249)" fill="#ff77be"/>
      </g>
      <g id="pink-single-l" transform="translate(144.503 767)">
        <g id="Ellipse_17-15" data-name="Ellipse 17" transform="translate(135 193)" stroke="#ff77be" stroke-width="3" fill="url(#linear-gradient)">
          <circle cx="30.5" cy="30.5" r="30.5" stroke="none"/>
          <circle cx="30.5" cy="30.5" r="29" fill="none"/>
        </g>
        <path id="Path_286-15" data-name="Path 286" d="M1.711,9.61S2.918-1.725,9.111-6.46,26-10.79,26-10.79s-9.256.743-15.448,5.479S1.711,9.61,1.711,9.61Z" transform="translate(144 212.094)" fill="#ff77be"/>
      </g>
      <g id="Group_126" data-name="Group 126" transform="translate(209.503 707)">
        <g id="Ellipse_17-16" data-name="Ellipse 17" transform="translate(135 193)" stroke="#ff77be" stroke-width="1" fill="url(#linear-gradient)">
          <circle cx="12.5" cy="12.5" r="12.5" stroke="none"/>
          <circle cx="12.5" cy="12.5" r="12" fill="none"/>
        </g>
        <path id="Path_286-16" data-name="Path 286" d="M1.711-2.309s.5-4.715,3.078-6.685,7.024-1.8,7.024-1.8A14.007,14.007,0,0,0,5.387-8.516C2.811-6.546,1.711-2.309,1.711-2.309Z" transform="translate(137.745 207.249)" fill="#ff77be"/>
      </g>
      <g id="Group_127" data-name="Group 127" transform="translate(138.503 224)">
        <g id="Ellipse_17-17" data-name="Ellipse 17" transform="translate(135 193)" stroke="#ff77be" stroke-width="1" fill="url(#linear-gradient)">
          <circle cx="12.5" cy="12.5" r="12.5" stroke="none"/>
          <circle cx="12.5" cy="12.5" r="12" fill="none"/>
        </g>
        <path id="Path_286-17" data-name="Path 286" d="M1.711-2.309s.5-4.715,3.078-6.685,7.024-1.8,7.024-1.8A14.007,14.007,0,0,0,5.387-8.516C2.811-6.546,1.711-2.309,1.711-2.309Z" transform="translate(137.745 207.249)" fill="#ff77be"/>
      </g>
      <g id="Group_129" data-name="Group 129" transform="translate(-38.497 53)">
        <g id="Ellipse_17-18" data-name="Ellipse 17" transform="translate(135 193)" stroke="#ff77be" stroke-width="1" fill="url(#linear-gradient)">
          <circle cx="12.5" cy="12.5" r="12.5" stroke="none"/>
          <circle cx="12.5" cy="12.5" r="12" fill="none"/>
        </g>
        <path id="Path_286-18" data-name="Path 286" d="M1.711-2.309s.5-4.715,3.078-6.685,7.024-1.8,7.024-1.8A14.007,14.007,0,0,0,5.387-8.516C2.811-6.546,1.711-2.309,1.711-2.309Z" transform="translate(137.745 207.249)" fill="#ff77be"/>
      </g>
      <g id="Group_130" data-name="Group 130" transform="translate(410.503 689)">
        <g id="Ellipse_17-19" data-name="Ellipse 17" transform="translate(135 193)" stroke="#ff77be" stroke-width="2" fill="url(#linear-gradient)">
          <circle cx="24.5" cy="24.5" r="24.5" stroke="none"/>
          <circle cx="24.5" cy="24.5" r="23.5" fill="none"/>
        </g>
        <path id="Path_286-19" data-name="Path 286" d="M1.711,5.758s.979-9.2,6-13.037,13.7-3.512,13.7-3.512-7.509.6-12.533,4.445S1.711,5.758,1.711,5.758Z" transform="translate(141.978 210.529)" fill="#ff77be"/>
      </g>
      <g id="pink-singel-s" transform="translate(26.503 367)">
        <g id="Ellipse_17-20" data-name="Ellipse 17" transform="translate(135 193)" stroke="#ff77be" stroke-width="1" fill="url(#linear-gradient)">
          <circle cx="12.5" cy="12.5" r="12.5" stroke="none"/>
          <circle cx="12.5" cy="12.5" r="12" fill="none"/>
        </g>
        <path id="Path_286-20" data-name="Path 286" d="M1.711-2.309s.5-4.715,3.078-6.685,7.024-1.8,7.024-1.8A14.007,14.007,0,0,0,5.387-8.516C2.811-6.546,1.711-2.309,1.711-2.309Z" transform="translate(137.745 207.249)" fill="#ff77be"/>
      </g>
      <g id="pink-singel-m" transform="translate(-37.497 128)">
        <g id="Ellipse_17-21" data-name="Ellipse 17" transform="translate(135 193)" stroke="#ff77be" stroke-width="2" fill="url(#linear-gradient)">
          <circle cx="24.5" cy="24.5" r="24.5" stroke="none"/>
          <circle cx="24.5" cy="24.5" r="23.5" fill="none"/>
        </g>
        <path id="Path_286-21" data-name="Path 286" d="M1.711,5.758s.979-9.2,6-13.037,13.7-3.512,13.7-3.512-7.509.6-12.533,4.445S1.711,5.758,1.711,5.758Z" transform="translate(141.978 210.529)" fill="#ff77be"/>
      </g>
      <g id="pink-single-l-2" data-name="pink-single-l" transform="translate(-74.497 418)">
        <g id="Ellipse_17-22" data-name="Ellipse 17" transform="translate(135 193)" stroke="#ff77be" stroke-width="3" fill="url(#linear-gradient)">
          <circle cx="30.5" cy="30.5" r="30.5" stroke="none"/>
          <circle cx="30.5" cy="30.5" r="29" fill="none"/>
        </g>
        <path id="Path_286-22" data-name="Path 286" d="M1.711,9.61S2.918-1.725,9.111-6.46,26-10.79,26-10.79s-9.256.743-15.448,5.479S1.711,9.61,1.711,9.61Z" transform="translate(144 212.094)" fill="#ff77be"/>
      </g>
    </g>
  </g>
</svg>
