<svg xmlns="http://www.w3.org/2000/svg" xmlns:xlink="http://www.w3.org/1999/xlink" width="449.394" height="686.141" viewBox="0 0 449.394 686.141">
  <defs>
    <linearGradient id="linear-gradient" x1="0.78" y1="0.697" x2="0.452" y2="0.411" gradientUnits="objectBoundingBox">
      <stop offset="0" stop-color="#06a798"/>
      <stop offset="1" stop-color="#069688"/>
    </linearGradient>
    <linearGradient id="linear-gradient-2" x1="0.192" y1="0.845" x2="0.848" y2="0.278" gradientUnits="objectBoundingBox">
      <stop offset="0" stop-color="#06a293"/>
      <stop offset="1" stop-color="#07887b"/>
    </linearGradient>
    <linearGradient id="linear-gradient-3" x1="0.314" y1="0.09" x2="0.665" y2="0.98" gradientUnits="objectBoundingBox">
      <stop offset="0" stop-color="#09b5a5"/>
      <stop offset="0.146" stop-color="#04cfbc"/>
      <stop offset="0.385" stop-color="#03d3c0"/>
      <stop offset="0.721" stop-color="#03a798"/>
      <stop offset="1" stop-color="#0bc6b5"/>
    </linearGradient>
    <linearGradient id="linear-gradient-4" x1="-0.208" y1="0.71" x2="0.837" y2="0.54" gradientUnits="objectBoundingBox">
      <stop offset="0" stop-color="#03d5c1"/>
      <stop offset="1" stop-color="#06a798"/>
    </linearGradient>
    <linearGradient id="linear-gradient-5" x1="0.61" y1="0.513" x2="1" y2="0.715" gradientUnits="objectBoundingBox">
      <stop offset="0" stop-color="#06a798"/>
      <stop offset="1" stop-color="#039386"/>
    </linearGradient>
    <filter id="Path_258" x="190.671" y="453.544" width="72.914" height="17.835" filterUnits="userSpaceOnUse">
      <feOffset dy="1" input="SourceAlpha"/>
      <feGaussianBlur stdDeviation="1" result="blur"/>
      <feFlood flood-color="#068d80" flood-opacity="0.588"/>
      <feComposite operator="in" in2="blur"/>
      <feComposite in="SourceGraphic"/>
    </filter>
    <filter id="Path_259" x="197.967" y="450.549" width="54.881" height="13.876" filterUnits="userSpaceOnUse">
      <feOffset dy="1" input="SourceAlpha"/>
      <feGaussianBlur stdDeviation="1" result="blur-2"/>
      <feFlood flood-color="#068e80" flood-opacity="0.82"/>
      <feComposite operator="in" in2="blur-2"/>
      <feComposite in="SourceGraphic"/>
    </filter>
    <filter id="Path_260" x="205.31" y="449.397" width="39.625" height="11.091" filterUnits="userSpaceOnUse">
      <feOffset dy="1" input="SourceAlpha"/>
      <feGaussianBlur stdDeviation="1" result="blur-3"/>
      <feFlood flood-color="#068d7f" flood-opacity="0.878"/>
      <feComposite operator="in" in2="blur-3"/>
      <feComposite in="SourceGraphic"/>
    </filter>
  </defs>
  <g id="squid-body" transform="translate(-529.459 -362.204)">
    <path id="Path_253" data-name="Path 253" d="M2570.116,1706.938a41.235,41.235,0,0,0,7.962,16.375c11.064,13.854,31.384,31.955,41.346,36.846,15.469,7.594,46.831,16.1,71.16,37.408s24.751,46.971,24.751,46.971-37.971-30.658-55.128-40.5-44.159-19.407-44.159-19.407-32.416-19.111-50.346-38.533a200.643,200.643,0,0,1-28.127-39.157Z" transform="translate(-1737 -869)" stroke="#009b88" stroke-width="1" fill="url(#linear-gradient)"/>
    <path id="Path_252" data-name="Path 252" d="M2394.412,1714.312S2386.185,1753.2,2357,1777.6s-81,34.314-81,34.314a76.188,76.188,0,0,0,29.533,10.688c17.046,2.484,38.252-4.725,55.691-16.876,35.018-24.4,56.534-91.411,56.534-91.411Z" transform="translate(-1737 -869)" stroke="#0d9a8e" stroke-width="1" fill="url(#linear-gradient-2)"/>
    <g id="Ellipse_42" data-name="Ellipse 42" transform="matrix(0.999, -0.035, 0.035, 0.999, 789, 727.698)" fill="#fff" stroke="#009e88" stroke-width="3">
      <ellipse cx="19.5" cy="32" rx="19.5" ry="32" stroke="none"/>
      <ellipse cx="19.5" cy="32" rx="18" ry="30.5" fill="none"/>
    </g>
    <path id="Union_2" data-name="Union 2" d="M-1567.057-213.409c-4.055-29.252,17.865-41.072,16.454-88.486-.991-33.286-10.4-49.911-15.919-67.719-6.137,23.508-19.619,47.509-32.712,72.289-17.707,33.512-9.269,46.672-31.847,67.35s-57.425,20.532-57.425,20.532,29.8-22.486,44.159-48.377,3.375-34.034,13.267-55.191c8.032-17.181,17.123-56.294,20.258-70.393.665-22.386,3.11-115.117-.154-171.511-3.734-64.487-14.934-81.457-14.934-81.457l-26.879-96.79,25.9,96.79a253.571,253.571,0,0,0-45.874-14.66c-24.329-5.168-52.123-6.342-58.291-9.777-17.182-9.567,7.826-50.966,12.853-103.7,4.031-42.286-5.277-86.488,16.067-100.415,47.856-31.226,215.709,126.225,228.946,157.451,10.751,25.361-23.415,51.681-24.477,52.491,25.854,45.166,49.026,93.154,46.821,117.019-4.842,52.4,1.317,87.328,10.923,120.167,6.305,21.554,9.6,31.775,11.115,36.254,2.154,2.348,12.706,14.659,27.019,44.911,10.071,21.287,10.577,33.078,14.26,47.168,2.3,8.808,10.942,40.644,10.942,40.644s-.546,25.954-1.926,34.877c-2.564,16.583-9.016,24.666-9.016,24.666s-2.1-35.742-10.238-65.085-10.6-31.811-22.3-52.287c-11.141-19.5-34-48.925-44.577-68.759-.424,2.407-.881,5.1-1.371,8.11-3.541,21.753-6.063,39.533-3.413,71.619s6.318,43.156,10.6,55.943c9.256,27.616,24.5,50.459,24.5,50.459s-34.736-6.034-50.459-43.512-11.021-58.988-12.432-106.4c-.557-18.7-10.917-30.776-14.693-39.235h-.726a68.935,68.935,0,0,1-4.325,9.984c-3.747,7.195-10.516,16.439-8.776,31.08,6.216,52.287-3.739,60.112-11.7,92.142s3.058,60.331,3.058,60.331-.065,0-.189,0C-1537.052-184.887-1563.2-185.55-1567.057-213.409Zm5.119-543.657c6.305,9.293,36.513,53.673,63.858,101.358-1.953-3.7-11.14-20.874-25.325-43.418-16.062-25.526-38.534-57.94-38.534-57.94h0Zm0,0-.038-.057Zm-.039-.058-.026-.039Zm-.027-.04-.359-.529Z" transform="translate(2267.445 1232.232)" stroke="#009e88" stroke-width="2" fill="url(#linear-gradient-3)"/>
    <path id="Path_256" data-name="Path 256" d="M2351.776,1372s2.356,30.284-5.011,49.3-19.987,26.98-19.987,26.98a216.965,216.965,0,0,1,25.057,6.235c13.305,4.195,24.773,9.064,24.773,9.064Z" transform="translate(-1737 -869)" fill="url(#linear-gradient-4)"/>
    <path id="Path_257" data-name="Path 257" d="M2414.46,1612.425c4.96,71.174.686,70.5-8.777,118.279-4.306,21.739-21.3,53.605-28.045,66.984-7.86,15.6-9.256,29.329-8.536,21.8.467-4.883-.284-11.634,1.477-20.976,1.441-7.64,7.868-19.189,11.471-31.5,6.788-23.2,12.568-49.112,12.568-49.112s-.078-13.971.462-34.823c.373-14.429.322-26.626.434-45.671.133-22.45,1.13-42.788,0-63.62-.566-10.434-.813-21.094-1.495-31.412-1.281-19.383-2.617-32.562-5.3-47.246-.788-4.317-3.644-11.735-6.02-19.839-5.458-18.62-12.312-41.589-12.312-41.589s21.923,44.91,27.088,61.428C2405.873,1521.978,2411.355,1567.87,2414.46,1612.425Z" transform="translate(-1737 -869)" fill="url(#linear-gradient-5)"/>
    <g id="Ellipse_41" data-name="Ellipse 41" transform="translate(650 732)" fill="#fff" stroke="#009e88" stroke-width="3">
      <ellipse cx="21.5" cy="35" rx="21.5" ry="35" stroke="none"/>
      <ellipse cx="21.5" cy="35" rx="20" ry="33.5" fill="none"/>
    </g>
    <ellipse id="Ellipse_43" data-name="Ellipse 43" cx="12" cy="22" rx="12" ry="22" transform="translate(661 747)" fill="#074640"/>
    <g transform="matrix(1, 0, 0, 1, 529.46, 362.2)" filter="url(#Path_258)">
      <path id="Path_258-2" data-name="Path 258" d="M1.265,3.377a126.733,126.733,0,0,0,32.12,4.5c17,0,34.447-6.363,34.447-6.363S50.28,9.877,33.28,9.877,1.265,3.377,1.265,3.377Z" transform="translate(192.33 457.58) rotate(-3)" fill="rgba(6,167,152,0.45)"/>
    </g>
    <g transform="matrix(1, 0, 0, 1, 529.46, 362.2)" filter="url(#Path_259)">
      <path id="Path_259-2" data-name="Path 259" d="M.4,6.093A128.744,128.744,0,0,0,24.325,8.629c12.21,0,24.745-4.088,24.745-4.088s-12.6,5.336-24.81,5.336A87.913,87.913,0,0,1,.4,6.093Z" transform="translate(200.33 450.58) rotate(-3)" fill="rgba(6,167,152,0.45)"/>
    </g>
    <g transform="matrix(1, 0, 0, 1, 529.46, 362.2)" filter="url(#Path_260)">
      <path id="Path_260-2" data-name="Path 260" d="M.385,7.215a113.03,113.03,0,0,0,16.8,1.414,76.13,76.13,0,0,0,16.7-2.094A50.477,50.477,0,0,1,17.137,9.877,61.7,61.7,0,0,1,.385,7.215Z" transform="translate(207.58 446.64) rotate(-3)" fill="rgba(6,167,152,0.45)"/>
    </g>
  </g>
</svg>
