<svg xmlns="http://www.w3.org/2000/svg" xmlns:xlink="http://www.w3.org/1999/xlink" width="318.51" height="399.421" viewBox="0 0 318.51 399.421">
  <defs>
    <linearGradient id="linear-gradient" x1="0.5" x2="0.5" y2="1" gradientUnits="objectBoundingBox">
      <stop offset="0" stop-color="#03dac6"/>
      <stop offset="1" stop-color="#068a7d"/>
    </linearGradient>
  </defs>
  <path id="squid-right" d="M2539.3,1701.437s18.395,4.593,35.144-6.7c26.138-17.628,54.651-54,54.651-93.318,0-63.932-60.249-97.326-55.615-150.207s76.054-65.121,76.054-65.121,27.807-22.341,54.188-22.341,49.911,17.112,51.337,22.341-23.292,23.767-48.485,27.57-52.287-12.359-52.287-12.359-58.467,13.785-56.565,64.171,67.974,94.117,54.664,151.633-41.354,85.086-63.22,101.247c-10.036,7.418-39.384,7.849-48.449,5.394-2.9-.786-36.488-21.948-43.764-27.17-17.276-12.4,8.98-9.106,8.98-9.106Z" transform="translate(-2673.165 -915.384) rotate(-9)" stroke="#009f88" stroke-width="1" fill="url(#linear-gradient)"/>
</svg>
