<svg xmlns="http://www.w3.org/2000/svg" xmlns:xlink="http://www.w3.org/1999/xlink" width="135" height="38" viewBox="0 0 135 38">
  <defs>
    <filter id="Ellipse_22" x="92.927" y="7.163" width="22.386" height="21.674" filterUnits="userSpaceOnUse">
      <feOffset input="SourceAlpha"/>
      <feGaussianBlur stdDeviation="1" result="blur"/>
      <feFlood flood-color="#fff" flood-opacity="0.161"/>
      <feComposite operator="in" in2="blur"/>
      <feComposite in="SourceGraphic"/>
    </filter>
    <filter id="Ellipse_23" x="19.685" y="7.163" width="22.522" height="21.674" filterUnits="userSpaceOnUse">
      <feOffset input="SourceAlpha"/>
      <feGaussianBlur stdDeviation="1" result="blur-2"/>
      <feFlood flood-color="#fff" flood-opacity="0.161"/>
      <feComposite operator="in" in2="blur-2"/>
      <feComposite in="SourceGraphic"/>
    </filter>
    <filter id="Ellipse_22-2" x="94.927" y="9.122" width="18.386" height="17.674" filterUnits="userSpaceOnUse">
      <feOffset input="SourceAlpha"/>
      <feGaussianBlur stdDeviation="1" result="blur-3"/>
      <feFlood flood-color="#fff" flood-opacity="0.161"/>
      <feComposite operator="in" in2="blur-3"/>
      <feComposite in="SourceGraphic"/>
    </filter>
    <filter id="Ellipse_23-2" x="21.685" y="9.122" width="17.522" height="17.674" filterUnits="userSpaceOnUse">
      <feOffset input="SourceAlpha"/>
      <feGaussianBlur stdDeviation="1" result="blur-4"/>
      <feFlood flood-color="#fff" flood-opacity="0.161"/>
      <feComposite operator="in" in2="blur-4"/>
      <feComposite in="SourceGraphic"/>
    </filter>
    <filter id="Path_98" x="8.266" y="6.202" width="42.44" height="15.796" filterUnits="userSpaceOnUse">
      <feOffset dy="1" input="SourceAlpha"/>
      <feGaussianBlur stdDeviation="1" result="blur-5"/>
      <feFlood flood-color="#75798c" flood-opacity="0.588"/>
      <feComposite operator="in" in2="blur-5"/>
      <feComposite in="SourceGraphic"/>
    </filter>
    <filter id="Path_107" x="11.141" y="20.997" width="39.564" height="11.735" filterUnits="userSpaceOnUse">
      <feOffset dy="1" input="SourceAlpha"/>
      <feGaussianBlur stdDeviation="1" result="blur-6"/>
      <feFlood flood-color="#75798c" flood-opacity="0.4"/>
      <feComposite operator="in" in2="blur-6"/>
      <feComposite in="SourceGraphic"/>
    </filter>
    <filter id="Path_109" x="10.164" y="0.412" width="38.915" height="13.919" filterUnits="userSpaceOnUse">
      <feOffset dy="-1" input="SourceAlpha"/>
      <feGaussianBlur stdDeviation="1" result="blur-7"/>
      <feFlood flood-color="#75798c" flood-opacity="0.541"/>
      <feComposite operator="in" in2="blur-7"/>
      <feComposite in="SourceGraphic"/>
    </filter>
    <filter id="Path_99" x="83.757" y="6.139" width="42.78" height="15.7" filterUnits="userSpaceOnUse">
      <feOffset dy="1" input="SourceAlpha"/>
      <feGaussianBlur stdDeviation="1" result="blur-8"/>
      <feFlood flood-color="#75798c" flood-opacity="0.6"/>
      <feComposite operator="in" in2="blur-8"/>
      <feComposite in="SourceGraphic"/>
    </filter>
    <filter id="Path_108" x="84.659" y="20.997" width="38.79" height="11.735" filterUnits="userSpaceOnUse">
      <feOffset dy="1" input="SourceAlpha"/>
      <feGaussianBlur stdDeviation="1" result="blur-9"/>
      <feFlood flood-color="#75798c" flood-opacity="0.4"/>
      <feComposite operator="in" in2="blur-9"/>
      <feComposite in="SourceGraphic"/>
    </filter>
    <filter id="Path_110" x="86.121" y="0.412" width="38.915" height="13.919" filterUnits="userSpaceOnUse">
      <feOffset dy="-1" input="SourceAlpha"/>
      <feGaussianBlur stdDeviation="1" result="blur-10"/>
      <feFlood flood-color="#75798c" flood-opacity="0.522"/>
      <feComposite operator="in" in2="blur-10"/>
      <feComposite in="SourceGraphic"/>
    </filter>
    <clipPath id="clip-full-open-eyes2">
      <rect width="135" height="38"/>
    </clipPath>
  </defs>
  <g id="full-open-eyes2" clip-path="url(#clip-full-open-eyes2)">
    <g id="pupiller" transform="translate(-307.247 -224)">
      <g id="Group_71" data-name="Group 71" transform="translate(329.932 234.163)">
        <g transform="matrix(1, 0, 0, 1, -22.68, -10.16)" filter="url(#Ellipse_22)">
          <ellipse id="Ellipse_22-3" data-name="Ellipse 22" cx="8.193" cy="7.837" rx="8.193" ry="7.837" transform="translate(95.93 10.16)" fill="#c5c9db"/>
        </g>
        <g transform="matrix(1, 0, 0, 1, -22.68, -10.16)" filter="url(#Ellipse_23)">
          <ellipse id="Ellipse_23-3" data-name="Ellipse 23" cx="8.261" cy="7.837" rx="8.261" ry="7.837" transform="translate(22.68 10.16)" fill="#c5c9db"/>
        </g>
      </g>
      <g id="Group_72" data-name="Group 72" transform="translate(331.932 236.122)">
        <g transform="matrix(1, 0, 0, 1, -24.68, -12.12)" filter="url(#Ellipse_22-2)">
          <ellipse id="Ellipse_22-4" data-name="Ellipse 22" cx="6.193" cy="5.837" rx="6.193" ry="5.837" transform="translate(97.93 12.12)" fill="#75798c"/>
        </g>
        <g transform="matrix(1, 0, 0, 1, -24.68, -12.12)" filter="url(#Ellipse_23-2)">
          <ellipse id="Ellipse_23-4" data-name="Ellipse 23" cx="5.761" cy="5.837" rx="5.761" ry="5.837" transform="translate(24.68 12.12)" fill="#75798c"/>
        </g>
      </g>
      <g id="Group_73" data-name="Group 73" transform="translate(338 239)">
        <circle id="Ellipse_24" data-name="Ellipse 24" cx="1.5" cy="1.5" r="1.5" fill="#fff"/>
        <circle id="Ellipse_25" data-name="Ellipse 25" cx="1.5" cy="1.5" r="1.5" transform="translate(73.997)" fill="#fff"/>
      </g>
    </g>
    <g id="ögon" transform="translate(11.584 2.412)">
      <g id="Group_65" data-name="Group 65" transform="translate(-3.563 2)">
        <g transform="matrix(1, 0, 0, 1, -8.02, -4.41)" filter="url(#Path_98)">
          <path id="Path_98-2" data-name="Path 98" d="M15.852-1.182c8.55,0,18.166,7.609,18.166,7.609S24.4,2.169,15.852,2.169-2.422,8.614-2.422,8.614,7.3-1.182,15.852-1.182Z" transform="translate(13.69 9.38)" fill="#75798c"/>
        </g>
        <g transform="matrix(1, 0, 0, 1, -8.02, -4.41)" filter="url(#Path_107)">
          <path id="Path_107-2" data-name="Path 107" d="M16.086,4.553c8.55,0,18.166-5.735,18.166-5.735S24.636,2.941,16.086,2.941A33.082,33.082,0,0,1,.687-1.182S7.536,4.553,16.086,4.553Z" transform="translate(13.45 24.18)" fill="#75798c"/>
        </g>
        <g transform="matrix(1, 0, 0, 1, -8.02, -4.41)" filter="url(#Path_109)">
          <path id="Path_109-2" data-name="Path 109" d="M26.259,1.248C30.319,2.4,34.1,7.517,34.1,7.517S29.462,2.8,26.525,2s-11.894.068-14.884.613S1.185,8.638,1.185,8.638,6.923,2.952,11.375,2,22.2.1,26.259,1.248Z" transform="translate(11.98 3.69)" fill="#75798c"/>
        </g>
        <g id="Group_78" data-name="Group 78" transform="translate(0 4.847) rotate(-8)">
          <g id="Group_74" data-name="Group 74" transform="translate(0 0.647)">
            <path id="Path_128" data-name="Path 128" d="M4.873,6.391a6.479,6.479,0,0,1-1.725.034A3.484,3.484,0,0,1,.87,5.282C-.563,3.634.206,1.046.206,1.046a5.475,5.475,0,0,0,1.9,4.024,4.2,4.2,0,0,0,4.223.361S3.6,5.8,2.711,4.266a6.286,6.286,0,0,1-.5-3.7,6.142,6.142,0,0,0,1.646,3.57,4.118,4.118,0,0,0,3.737.678s-2.4-.224-2.924-1.454A8.673,8.673,0,0,1,4.344,0s.229,2.421,1.593,3.422a5.751,5.751,0,0,0,3.647.659Z" transform="translate(0 0.502) rotate(-3)" fill="#75798c"/>
          </g>
          <g id="Group_76" data-name="Group 76" transform="translate(7.123 0)">
            <path id="Path_128-2" data-name="Path 128" d="M4.991,4.318S1.5,4.517.469,3.343.425.421.425.421A3.285,3.285,0,0,0,1.636,3.168c1.383,1.077,4.4.466,4.4.466S4.08,3.9,3.44,2.8A4.3,4.3,0,0,1,3.268,0,3.928,3.928,0,0,0,4.26,2.707a2.976,2.976,0,0,0,2.684.484s-1.721-.16-2.1-1.037A1.971,1.971,0,0,1,4.932.489,1.879,1.879,0,0,0,5.756,2.2a4.158,4.158,0,0,0,2.619.47Z" transform="translate(0 0.438) rotate(-3)" fill="#75798c"/>
          </g>
          <g id="Group_77" data-name="Group 77" transform="translate(13.807 0.025)">
            <path id="Path_128-3" data-name="Path 128" d="M3.941,3.441s-2.259.4-3.3-.541S.141.212.141.212a3.525,3.525,0,0,0,1.52,2.525,4.332,4.332,0,0,0,3.32.173S3.026,3.1,2.374,2.224A2.757,2.757,0,0,1,2.172,0,2.782,2.782,0,0,0,3.193,2.156a3.665,3.665,0,0,0,2.687.412s-1.722-.145-2.109-.844A1.275,1.275,0,0,1,3.84.405a1.4,1.4,0,0,0,.842,1.366,5.172,5.172,0,0,0,2.623.4Z" transform="translate(0 0.382) rotate(-3)" fill="#75798c"/>
          </g>
        </g>
      </g>
      <g id="Group_64" data-name="Group 64" transform="translate(75.173 2)">
        <g transform="matrix(1, 0, 0, 1, -86.76, -4.41)" filter="url(#Path_99)">
          <path id="Path_99-2" data-name="Path 99" d="M18.655-1.251C10.1-1.251,0,6.422,0,6.422S9.616,2.164,18.166,2.164,36.78,8.45,36.78,8.45,27.2-1.251,18.655-1.251Z" transform="translate(86.76 9.39)" fill="#75798c"/>
        </g>
        <g transform="matrix(1, 0, 0, 1, -86.76, -4.41)" filter="url(#Path_108)">
          <path id="Path_108-2" data-name="Path 108" d="M18.166,4.553C9.616,4.553,0-1.182,0-1.182S9.616,2.941,18.166,2.941A28.3,28.3,0,0,0,32.79-1.182S26.717,4.553,18.166,4.553Z" transform="translate(87.66 24.18)" fill="#75798c"/>
        </g>
        <g transform="matrix(1, 0, 0, 1, -86.76, -4.41)" filter="url(#Path_110)">
          <path id="Path_110-2" data-name="Path 110" d="M9.026,1.248C4.966,2.4,1.185,7.517,1.185,7.517S5.823,2.8,8.76,2s11.894.068,14.884.613S34.1,8.638,34.1,8.638,28.361,2.952,23.909,2,13.086.1,9.026,1.248Z" transform="translate(87.94 3.69)" fill="#75798c" opacity="0.79"/>
        </g>
        <g id="Group_79" data-name="Group 79" transform="translate(39.433 12.374) rotate(-172)">
          <g id="Group_74-2" data-name="Group 74" transform="translate(0 0)">
            <path id="Path_128-4" data-name="Path 128" d="M4.873.07A6.479,6.479,0,0,0,3.148.036,3.484,3.484,0,0,0,.87,1.18C-.563,2.828.206,5.415.206,5.415a5.475,5.475,0,0,1,1.9-4.024A4.2,4.2,0,0,1,6.332,1.03S3.6.662,2.712,2.195a6.286,6.286,0,0,0-.5,3.7A6.142,6.142,0,0,1,3.854,2.33a4.118,4.118,0,0,1,3.737-.678s-2.4.224-2.924,1.454a8.673,8.673,0,0,0-.324,3.355S4.573,4.04,5.937,3.039A5.751,5.751,0,0,1,9.584,2.38Z" transform="translate(0.338 0) rotate(3)" fill="#75798c"/>
          </g>
          <g id="Group_76-2" data-name="Group 76" transform="translate(7.123 2.838)">
            <path id="Path_128-5" data-name="Path 128" d="M4.991.013S1.5-.187.469.988.425,3.91.425,3.91A3.285,3.285,0,0,1,1.636,1.163C3.019.086,6.039.7,6.039.7s-1.959-.262-2.6.83a4.3,4.3,0,0,0-.171,2.8A3.928,3.928,0,0,1,4.26,1.623,2.976,2.976,0,0,1,6.944,1.14s-1.721.16-2.1,1.037a1.971,1.971,0,0,0,.087,1.665,1.879,1.879,0,0,1,.824-1.713,4.158,4.158,0,0,1,2.619-.47Z" transform="translate(0.227 0) rotate(3)" fill="#75798c"/>
          </g>
          <g id="Group_77-2" data-name="Group 77" transform="translate(13.807 3.673)">
            <path id="Path_128-6" data-name="Path 128" d="M3.941.085S1.682-.316.64.626s-.5,2.688-.5,2.688A3.525,3.525,0,0,1,1.661.789,4.332,4.332,0,0,1,4.981.616S3.026.429,2.374,1.3a2.757,2.757,0,0,0-.2,2.224A2.782,2.782,0,0,1,3.193,1.369,3.666,3.666,0,0,1,5.88.957S4.158,1.1,3.771,1.8A1.275,1.275,0,0,0,3.84,3.12a1.4,1.4,0,0,1,.842-1.366,5.172,5.172,0,0,1,2.623-.4Z" transform="translate(0.185 0) rotate(3)" fill="#75798c"/>
          </g>
        </g>
      </g>
    </g>
  </g>
</svg>
