<svg xmlns="http://www.w3.org/2000/svg" xmlns:xlink="http://www.w3.org/1999/xlink" width="627" height="497" viewBox="0 0 627 497">
  <defs>
    <linearGradient id="linear-gradient" x1="0.487" y1="0.848" x2="0.478" y2="0.114" gradientUnits="objectBoundingBox">
      <stop offset="0" stop-color="#b4568a"/>
      <stop offset="1" stop-color="#ff77be"/>
    </linearGradient>
    <filter id="Path_84" x="198.922" y="231.134" width="96.583" height="209.101" filterUnits="userSpaceOnUse">
      <feOffset dy="3" input="SourceAlpha"/>
      <feGaussianBlur stdDeviation="4" result="blur"/>
      <feFlood flood-color="#353746" flood-opacity="0.549"/>
      <feComposite operator="in" in2="blur"/>
      <feComposite in="SourceGraphic"/>
    </filter>
    <filter id="Path_83" x="143.043" y="10.916" width="186.817" height="417.205" filterUnits="userSpaceOnUse">
      <feOffset dy="3" input="SourceAlpha"/>
      <feGaussianBlur stdDeviation="4" result="blur-2"/>
      <feFlood flood-color="#353746" flood-opacity="0.322"/>
      <feComposite operator="in" in2="blur-2"/>
      <feComposite in="SourceGraphic"/>
    </filter>
    <filter id="Path_82" x="137.66" y="23.524" width="185.471" height="402.176" filterUnits="userSpaceOnUse">
      <feOffset dy="3" input="SourceAlpha"/>
      <feGaussianBlur stdDeviation="4" result="blur-3"/>
      <feFlood flood-color="#343645" flood-opacity="0.141"/>
      <feComposite operator="in" in2="blur-3"/>
      <feComposite in="SourceGraphic"/>
    </filter>
    <filter id="halskopia" x="141.763" y="237.075" width="249.552" height="177.974" filterUnits="userSpaceOnUse">
      <feOffset dy="-2" input="SourceAlpha"/>
      <feGaussianBlur stdDeviation="3" result="blur-4"/>
      <feFlood flood-color="#353746" flood-opacity="0.251"/>
      <feComposite operator="in" in2="blur-4"/>
      <feComposite in="SourceGraphic"/>
    </filter>
    <filter id="Path_111" x="302.503" y="282.859" width="14.538" height="35.738" filterUnits="userSpaceOnUse">
      <feOffset dy="1" input="SourceAlpha"/>
      <feGaussianBlur stdDeviation="1" result="blur-5"/>
      <feFlood flood-color="#75798c" flood-opacity="0.4"/>
      <feComposite operator="in" in2="blur-5"/>
      <feComposite in="SourceGraphic"/>
    </filter>
    <filter id="Path_112" x="292.286" y="278.214" width="14.538" height="35.738" filterUnits="userSpaceOnUse">
      <feOffset dy="1" input="SourceAlpha"/>
      <feGaussianBlur stdDeviation="1" result="blur-6"/>
      <feFlood flood-color="#75798c" flood-opacity="0.4"/>
      <feComposite operator="in" in2="blur-6"/>
      <feComposite in="SourceGraphic"/>
    </filter>
    <linearGradient id="linear-gradient-2" x1="0.529" y1="0.323" x2="0.5" y2="1" gradientUnits="objectBoundingBox">
      <stop offset="0" stop-color="#75798c"/>
      <stop offset="1" stop-color="#373a49"/>
    </linearGradient>
    <filter id="tröja" x="133.258" y="306.996" width="354.428" height="162.937" filterUnits="userSpaceOnUse">
      <feOffset dy="-3" input="SourceAlpha"/>
      <feGaussianBlur stdDeviation="3" result="blur-7"/>
      <feFlood flood-color="#353746" flood-opacity="0.459"/>
      <feComposite operator="in" in2="blur-7"/>
      <feComposite in="SourceGraphic"/>
    </filter>
    <radialGradient id="radial-gradient" cx="0.5" cy="0.201" r="0.601" gradientTransform="translate(0 -0.031) scale(1 1.153)" gradientUnits="objectBoundingBox">
      <stop offset="0" stop-color="#9b9fb0"/>
      <stop offset="0.111" stop-color="#a1a5b5" stop-opacity="0.749"/>
      <stop offset="1" stop-color="#f5f5f5"/>
    </radialGradient>
    <filter id="Path_86" x="328.384" y="131.895" width="108.489" height="361.78" filterUnits="userSpaceOnUse">
      <feOffset dy="3" input="SourceAlpha"/>
      <feGaussianBlur stdDeviation="4" result="blur-8"/>
      <feFlood flood-color="#353746" flood-opacity="0.388"/>
      <feComposite operator="in" in2="blur-8"/>
      <feComposite in="SourceGraphic"/>
    </filter>
    <filter id="Path_87" x="342.338" y="139.239" width="105.824" height="338.214" filterUnits="userSpaceOnUse">
      <feOffset dy="3" input="SourceAlpha"/>
      <feGaussianBlur stdDeviation="4" result="blur-9"/>
      <feFlood flood-color="#353746" flood-opacity="0.149"/>
      <feComposite operator="in" in2="blur-9"/>
      <feComposite in="SourceGraphic"/>
    </filter>
    <filter id="Path_88" x="298.41" y="13.129" width="176.943" height="373.164" filterUnits="userSpaceOnUse">
      <feOffset dy="3" input="SourceAlpha"/>
      <feGaussianBlur stdDeviation="4" result="blur-10"/>
      <feFlood flood-color="#343645" flood-opacity="0.22"/>
      <feComposite operator="in" in2="blur-10"/>
      <feComposite in="SourceGraphic"/>
    </filter>
    <filter id="Path_85" x="294.432" y="28.397" width="181.018" height="435.398" filterUnits="userSpaceOnUse">
      <feOffset dy="3" input="SourceAlpha"/>
      <feGaussianBlur stdDeviation="4" result="blur-11"/>
      <feFlood flood-color="#353746" flood-opacity="0.18"/>
      <feComposite operator="in" in2="blur-11"/>
      <feComposite in="SourceGraphic"/>
    </filter>
    <filter id="ansikte_skugga" x="207.503" y="51.208" width="199.679" height="231.114" filterUnits="userSpaceOnUse">
      <feOffset dy="3" input="SourceAlpha"/>
      <feGaussianBlur stdDeviation="3" result="blur-12"/>
      <feFlood flood-opacity="0.161"/>
      <feComposite operator="in" in2="blur-12"/>
      <feComposite in="SourceGraphic"/>
    </filter>
    <filter id="Path_94" x="375.029" y="185.762" width="25.699" height="27.366" filterUnits="userSpaceOnUse">
      <feOffset dx="0.5" dy="1" input="SourceAlpha"/>
      <feGaussianBlur stdDeviation="1" result="blur-13"/>
      <feFlood flood-color="#75798c" flood-opacity="0.478"/>
      <feComposite operator="in" in2="blur-13"/>
      <feComposite in="SourceGraphic"/>
    </filter>
    <filter id="Path_94-2" x="211.471" y="185.762" width="25.699" height="27.366" filterUnits="userSpaceOnUse">
      <feOffset dx="-0.5" dy="1" input="SourceAlpha"/>
      <feGaussianBlur stdDeviation="1" result="blur-14"/>
      <feFlood flood-color="#75798c" flood-opacity="0.369"/>
      <feComposite operator="in" in2="blur-14"/>
      <feComposite in="SourceGraphic"/>
    </filter>
    <linearGradient id="linear-gradient-3" x1="0.091" y1="0.5" x2="0.806" y2="0.5" gradientUnits="objectBoundingBox">
      <stop offset="0" stop-color="#6a6e81"/>
      <stop offset="1" stop-color="#9b9fb0"/>
    </linearGradient>
    <filter id="Path_93" x="318.733" y="129.081" width="52.94" height="16.654" filterUnits="userSpaceOnUse">
      <feOffset dy="2" input="SourceAlpha"/>
      <feGaussianBlur stdDeviation="1" result="blur-15"/>
      <feFlood flood-color="#3e404f" flood-opacity="0.2"/>
      <feComposite operator="in" in2="blur-15"/>
      <feComposite in="SourceGraphic"/>
    </filter>
    <linearGradient id="linear-gradient-4" x1="0.791" y1="0.5" x2="0.257" y2="0.5" gradientUnits="objectBoundingBox">
      <stop offset="0" stop-color="#6a6e81"/>
      <stop offset="1" stop-color="#989cac"/>
    </linearGradient>
    <filter id="Path_97" x="237.814" y="128.081" width="51.71" height="16.654" filterUnits="userSpaceOnUse">
      <feOffset dy="1" input="SourceAlpha"/>
      <feGaussianBlur stdDeviation="1" result="blur-16"/>
      <feFlood flood-color="#3e404f" flood-opacity="0.2"/>
      <feComposite operator="in" in2="blur-16"/>
      <feComposite in="SourceGraphic"/>
    </filter>
    <filter id="Path_90" x="195.666" y="32.193" width="120.908" height="177.277" filterUnits="userSpaceOnUse">
      <feOffset dy="5" input="SourceAlpha"/>
      <feGaussianBlur stdDeviation="2" result="blur-17"/>
      <feFlood flood-color="#75798c" flood-opacity="0.239"/>
      <feComposite operator="in" in2="blur-17"/>
      <feComposite in="SourceGraphic"/>
    </filter>
    <filter id="Path_91" x="299.725" y="28.341" width="127.114" height="205.032" filterUnits="userSpaceOnUse">
      <feOffset dx="-3" dy="2" input="SourceAlpha"/>
      <feGaussianBlur stdDeviation="2" result="blur-18"/>
      <feFlood flood-color="#75798c" flood-opacity="0.22"/>
      <feComposite operator="in" in2="blur-18"/>
      <feComposite in="SourceGraphic"/>
    </filter>
    <filter id="Path_89" x="300.536" y="50.085" width="137.211" height="201.11" filterUnits="userSpaceOnUse">
      <feOffset dy="3" input="SourceAlpha"/>
      <feGaussianBlur stdDeviation="3" result="blur-19"/>
      <feFlood flood-color="#75798c" flood-opacity="0.161"/>
      <feComposite operator="in" in2="blur-19"/>
      <feComposite in="SourceGraphic"/>
    </filter>
    <filter id="Path_81" x="185.39" y="48.571" width="132.88" height="200.111" filterUnits="userSpaceOnUse">
      <feOffset dy="3" input="SourceAlpha"/>
      <feGaussianBlur stdDeviation="3" result="blur-20"/>
      <feFlood flood-color="#75798c" flood-opacity="0.329"/>
      <feComposite operator="in" in2="blur-20"/>
      <feComposite in="SourceGraphic"/>
    </filter>
    <filter id="Ellipse_6" x="213.517" y="207.517" width="25.505" height="25.505" filterUnits="userSpaceOnUse">
      <feOffset dy="1" input="SourceAlpha"/>
      <feGaussianBlur stdDeviation="1" result="blur-21"/>
      <feFlood flood-color="#75798c" flood-opacity="0.541"/>
      <feComposite operator="in" in2="blur-21"/>
      <feComposite in="SourceGraphic"/>
    </filter>
    <filter id="Ellipse_7" x="372.082" y="207.517" width="25.505" height="25.505" filterUnits="userSpaceOnUse">
      <feOffset dy="1" input="SourceAlpha"/>
      <feGaussianBlur stdDeviation="1" result="blur-22"/>
      <feFlood flood-color="#75798c" flood-opacity="0.431"/>
      <feComposite operator="in" in2="blur-22"/>
      <feComposite in="SourceGraphic"/>
    </filter>
    <filter id="Path_118" x="295.172" y="200.438" width="22.933" height="18.032" filterUnits="userSpaceOnUse">
      <feOffset dx="1" input="SourceAlpha"/>
      <feGaussianBlur stdDeviation="2" result="blur-23"/>
      <feFlood flood-color="#75798c" flood-opacity="0.251"/>
      <feComposite operator="in" in2="blur-23"/>
      <feComposite in="SourceGraphic"/>
    </filter>
    <filter id="Path_117" x="288.789" y="161.105" width="23.763" height="36.241" filterUnits="userSpaceOnUse">
      <feOffset dx="1" input="SourceAlpha"/>
      <feGaussianBlur stdDeviation="2" result="blur-24"/>
      <feFlood flood-color="#75798c" flood-opacity="0.251"/>
      <feComposite operator="in" in2="blur-24"/>
      <feComposite in="SourceGraphic"/>
    </filter>
    <filter id="näsa" x="284.313" y="198.884" width="42.479" height="23.456" filterUnits="userSpaceOnUse">
      <feOffset dy="1" input="SourceAlpha"/>
      <feGaussianBlur stdDeviation="1" result="blur-25"/>
      <feFlood flood-color="#75798c" flood-opacity="0.349"/>
      <feComposite operator="in" in2="blur-25"/>
      <feComposite in="SourceGraphic"/>
    </filter>
    <filter id="Ellipse_22" x="329.927" y="153.163" width="22.386" height="21.674" filterUnits="userSpaceOnUse">
      <feOffset input="SourceAlpha"/>
      <feGaussianBlur stdDeviation="1" result="blur-26"/>
      <feFlood flood-color="#fff" flood-opacity="0.161"/>
      <feComposite operator="in" in2="blur-26"/>
      <feComposite in="SourceGraphic"/>
    </filter>
    <filter id="Ellipse_23" x="256.685" y="153.163" width="22.522" height="21.674" filterUnits="userSpaceOnUse">
      <feOffset input="SourceAlpha"/>
      <feGaussianBlur stdDeviation="1" result="blur-27"/>
      <feFlood flood-color="#fff" flood-opacity="0.161"/>
      <feComposite operator="in" in2="blur-27"/>
      <feComposite in="SourceGraphic"/>
    </filter>
    <filter id="Ellipse_22-2" x="331.927" y="155.122" width="18.386" height="17.674" filterUnits="userSpaceOnUse">
      <feOffset input="SourceAlpha"/>
      <feGaussianBlur stdDeviation="1" result="blur-28"/>
      <feFlood flood-color="#fff" flood-opacity="0.161"/>
      <feComposite operator="in" in2="blur-28"/>
      <feComposite in="SourceGraphic"/>
    </filter>
    <filter id="Ellipse_23-2" x="258.685" y="155.122" width="17.522" height="17.674" filterUnits="userSpaceOnUse">
      <feOffset input="SourceAlpha"/>
      <feGaussianBlur stdDeviation="1" result="blur-29"/>
      <feFlood flood-color="#fff" flood-opacity="0.161"/>
      <feComposite operator="in" in2="blur-29"/>
      <feComposite in="SourceGraphic"/>
    </filter>
    <filter id="Path_98" x="245.267" y="152.202" width="42.44" height="15.796" filterUnits="userSpaceOnUse">
      <feOffset dy="1" input="SourceAlpha"/>
      <feGaussianBlur stdDeviation="1" result="blur-30"/>
      <feFlood flood-color="#75798c" flood-opacity="0.588"/>
      <feComposite operator="in" in2="blur-30"/>
      <feComposite in="SourceGraphic"/>
    </filter>
    <filter id="Path_107" x="248.141" y="166.997" width="39.565" height="11.735" filterUnits="userSpaceOnUse">
      <feOffset dy="1" input="SourceAlpha"/>
      <feGaussianBlur stdDeviation="1" result="blur-31"/>
      <feFlood flood-color="#75798c" flood-opacity="0.4"/>
      <feComposite operator="in" in2="blur-31"/>
      <feComposite in="SourceGraphic"/>
    </filter>
    <filter id="Path_109" x="247.166" y="146.412" width="38.914" height="13.919" filterUnits="userSpaceOnUse">
      <feOffset dy="-1" input="SourceAlpha"/>
      <feGaussianBlur stdDeviation="1" result="blur-32"/>
      <feFlood flood-color="#75798c" flood-opacity="0.541"/>
      <feComposite operator="in" in2="blur-32"/>
      <feComposite in="SourceGraphic"/>
    </filter>
    <filter id="Path_99" x="320.758" y="152.139" width="42.78" height="15.7" filterUnits="userSpaceOnUse">
      <feOffset dy="1" input="SourceAlpha"/>
      <feGaussianBlur stdDeviation="1" result="blur-33"/>
      <feFlood flood-color="#75798c" flood-opacity="0.6"/>
      <feComposite operator="in" in2="blur-33"/>
      <feComposite in="SourceGraphic"/>
    </filter>
    <filter id="Path_108" x="321.659" y="166.997" width="38.79" height="11.735" filterUnits="userSpaceOnUse">
      <feOffset dy="1" input="SourceAlpha"/>
      <feGaussianBlur stdDeviation="1" result="blur-34"/>
      <feFlood flood-color="#75798c" flood-opacity="0.4"/>
      <feComposite operator="in" in2="blur-34"/>
      <feComposite in="SourceGraphic"/>
    </filter>
    <filter id="Path_110" x="323.123" y="146.412" width="38.914" height="13.919" filterUnits="userSpaceOnUse">
      <feOffset dy="-1" input="SourceAlpha"/>
      <feGaussianBlur stdDeviation="1" result="blur-35"/>
      <feFlood flood-color="#75798c" flood-opacity="0.522"/>
      <feComposite operator="in" in2="blur-35"/>
      <feComposite in="SourceGraphic"/>
    </filter>
    <clipPath id="clip-only-face">
      <rect width="627" height="497"/>
    </clipPath>
  </defs>
  <g id="only-face" clip-path="url(#clip-only-face)">
    <g id="Group_85" data-name="Group 85" transform="translate(-989.531 -338.326)">
      <path id="Union_1" data-name="Union 1" d="M135.427,256.846a67.739,67.739,0,0,1-7.941-9.278,105.348,105.348,0,0,1-11.476.039c-8.985-.312-17.135-.624-27.07,5.4-17.022,10.316-26.348,16.06-42.349,9.742S32.336,241.364,26.2,223.215-2.343,210.2.2,199.018s22.888-17.836,20.86-27.842-7.769-19.708-.788-42.534S64.34,111,71.949,92.3C77.859,75.25,63.654,67.853,60.13,53.551c-3.048-12.367,2.049-24.67,14.326-30.741,25.957-12.836,57.477,5.918,57.477,5.918s3.31-20.9,13.992-27.247c3.309-1.967,9.4,5.531,15.855,13.029,5.919,6.878,12.139,13.755,16.79,13.329,6.958-.639,11.373.609,14.409,3.118C229.583,23.388,264.215,0,300.167,0c32.071,0,58.445,15.586,88.528,28,4.118-8.544,10.061-16.947,18.6-22.57C418.823-2.162,431.123.156,438.915,9.8c9.014,11.151,6.75,28,23.149,32.244,8.985,1.761,17.538-5.733,26.391-13.226,9.491-8.033,19.329-16.067,30.419-12.7C540.31,22.637,544.55,33.2,551.1,40.611c3.554,4.02,10.033,1.6,16.815-.829,5.719-2.044,11.654-4.089,16.232-2.269,10.009,3.976-6.467,21.164,4.043,36.8s23.057,22.5,18.962,40.349-13.721,22.986-31.163,32.45-11.861,34.734-26.72,49.6-29.717-14.033-29.717-14.033-4.511,59.292-29.272,63.762a27.868,27.868,0,0,1-10.612-.38c-1.545,9.663-3.5,16.324-5.967,18.259-10.248,8.038-23.295,12.311-37.658,19.226-50.895,24.505-107.221,31.826-135.665,34.819a54.462,54.462,0,0,1-5.661.271C257.99,318.64,174.722,289.635,135.427,256.846Z" transform="translate(996.028 483.62)" opacity="0.81" fill="url(#linear-gradient)"/>
      <g id="Group_82" data-name="Group 82" transform="translate(1131.79 358.241)">
        <g id="Group_81" data-name="Group 81" transform="translate(0 0)">
          <g id="ansikte">
            <g id="hår_bakom_vänster" data-name="hår bakom vänster" transform="translate(7.402)">
              <g transform="matrix(1, 0, 0, 1, -149.66, -19.92)" filter="url(#Path_84)">
                <path id="Path_84-2" data-name="Path 84" d="M6745.6-2691.783l25.374,29.1s-8.53,12.595-6.072,26.413c3.356,18.864-15.145,32.19-15.145,58.327s16.786,22.01,15.145,46.222,4.3,2.624-6.682,18.143-18.426,0-18.426,0-12.637,6.189-15.175-7.869c-2.342-12.974-10.241-5.7-13.387-23.734-6.421-36.8-12.841-75.483-12.841-75.483Z" transform="translate(-6487.47 2931.92)" fill="#75798c"/>
              </g>
              <g transform="matrix(1, 0, 0, 1, -149.66, -19.92)" filter="url(#Path_83)">
                <path id="Path_83-2" data-name="Path 83" d="M6795.458-2906.8a34.651,34.651,0,0,1,0-13.889,33.687,33.687,0,0,1,5.591-12.183s-22.538-10.147-45.744-5.6c-12.456,2.438-24.035,11.881-34.964,24.107-30.7,34.342-30.6,102.357-46.359,129.892s8.705,43.677,0,79.679-19.061,20.224-32.275,52.388,14.687,32.709,26.439,62.619,10.193,5.919,16.559,29.307,23.911,7.539,23.911,7.539,6.442,14.634,17.865,0,14.854,2.873,6.151-13.992c-3.788-11.512-16.49-17.992-18.234-29.919-3.059-20.926,15.127-23.749,22.223-44.214s3.312-75.621,3.312-75.621a112.065,112.065,0,0,1-19.2-29.3c-7.539-17.159-12.114-20.7-12.114-20.7s6.778-18.1,14.321-47.949-4.067-47.281,15.85-71.449S6795.458-2906.8,6795.458-2906.8Z" transform="translate(-6483.19 2959.57)" fill="#9b9fb0"/>
              </g>
              <g transform="matrix(1, 0, 0, 1, -149.66, -19.92)" filter="url(#Path_82)">
                <path id="Path_82-2" data-name="Path 82" d="M6724.221-2677.316c-5.915,20.21-63.134,41.56-54.115,63.005s30.191,21.133,35.775,46.767-17.737,19.61-17.737,19.61,1.317,2.563-10.61-13.433-54.838-51.582-43.076-81.358,51.34-29.4,53.686-48.592-8.886-47.087-8.886-47.087a590.5,590.5,0,0,1,13.181-66.98c3.875-14.52,10.53-81.518,31.782-102.545,11.372-11.251,24.484-17.029,37.329-17.533,16.612-.653,32.358,9.186,32.358,9.186l-3.841,22.583s-38.344-10.943-54.665,13.765-5.934,42.45-11.182,77.83-2,40.119,0,67.5S6730.135-2697.526,6724.221-2677.316Z" transform="translate(-6482.78 2958.02)" fill="#c7cbdc"/>
              </g>
            </g>
            <path id="hals" d="M-13.181,24.025H79S68.828,53.29,71.817,79.783,90.956,130,90.956,130L40.133,164.091-21.892,130s15.243-23.721,17.42-50.214S-13.181,24.025-13.181,24.025Z" transform="translate(128.372 204.135)" fill="#f5f5f5"/>
            <g transform="matrix(1, 0, 0, 1, -142.26, -19.92)" filter="url(#halskopia)">
              <path id="halskopia-2" data-name="halskopia" d="M-24.575,24.025H78A105.867,105.867,0,0,0,71.49,72.6c2.989,26.493,32.684,40.917,32.684,40.917L34.9,184s-168.036-27.417-162.124-65.048,59.1-26.067,59.1-26.067S-15.585,90.9-13.408,64.405-24.575,24.025-24.575,24.025Z" transform="translate(278.14 224.05)" fill="#f5f5f5"/>
            </g>
            <g id="skugga_hals" data-name="skugga hals" transform="translate(153.028 260.299)">
              <g transform="matrix(1, 0, 0, 1, -295.29, -280.21)" filter="url(#Path_111)">
                <path id="Path_111-2" data-name="Path 111" d="M16.182,0C24.99,0,29.324,5.5,29.324,5.5S24.99.674,16.182.674,0,.992,0,.992A135.879,135.879,0,0,1,16.182,0Z" transform="matrix(0.1, 0.99, -0.99, 0.1, 310.98, 284.86)" fill="#9b9fb0" opacity="0.39"/>
              </g>
              <g transform="matrix(1, 0, 0, 1, -295.29, -280.21)" filter="url(#Path_112)">
                <path id="Path_112-2" data-name="Path 112" d="M13.141,0C4.334,0,0,5.5,0,5.5S4.334.742,13.141.742s16.182.25,16.182.25A135.879,135.879,0,0,0,13.141,0Z" transform="matrix(0.1, -0.99, 0.99, 0.1, 295.29, 309.38)" fill="#9b9fb0" opacity="0.39"/>
              </g>
            </g>
            <g transform="matrix(1, 0, 0, 1, -142.26, -19.92)" filter="url(#tröja)">
              <path id="tröja-2" data-name="tröja" d="M6076.957-1229.127c43.547-3.373,155.788,61.739,155.788,61.739s131.884-107.92,152.107-61.739,16.827,80.822,16.827,80.822-83.543,49.922-168.935,52.545-167.278-61.035-167.278-61.035S6065.57-1194.478,6076.957-1229.127Z" transform="translate(-5923.21 1559.62)" fill="url(#linear-gradient-2)"/>
            </g>
            <path id="Path_106" data-name="Path 106" d="M-5.224-.551,91.753.835,85.86,29.293s12.9,11.235,0,16.312c-4.907,1.933-31.444.541-38.291.541-9.61,0-46.283-.541-46.283-.541s2.016-2.763,2.389-10.3S4.007,24.44,1.895,15.2A44.821,44.821,0,0,0-5.224-.551Z" transform="translate(118.642 231.363)" fill="url(#radial-gradient)"/>
            <g id="hår_bakom_höger" data-name="hår bakom höger" transform="translate(164.173 2.214)">
              <g transform="matrix(1, 0, 0, 1, -306.43, -22.13)" filter="url(#Path_86)">
                <path id="Path_86-2" data-name="Path 86" d="M6862.191-2728.3c-14.335,35.143-25.124,35.524-25.124,35.524s-13.68,30.4-9.492,49.944,15.249,20.089,16.75,42.434-13.381,33.892-10.745,46.944c4.938,24.455,21.089,45.549,28.611,61.177,7.173,14.9,3.436,27.867,3.436,27.867s42.75-48.574,45.472-81.755-28.307-47.452-26.855-87.768,26.855-62.079,26.855-62.079l-36.881-106.178S6876.527-2763.445,6862.191-2728.3Z" transform="translate(-6486.39 2943.09)" fill="#75798c"/>
              </g>
              <g transform="matrix(1, 0, 0, 1, -306.43, -22.13)" filter="url(#Path_87)">
                <path id="Path_87-2" data-name="Path 87" d="M6867.951-2794.148c5.708,47.293-7.514,93.915-7.514,93.915s-7.961,34.819-7.624,46.254c.819,27.753,25,35.945,25.315,64.5.141,12.635-15.13,31.3-14.083,42.266,3.27,34.229,20.68,35.535,30.708,44.109,10.145,8.675,25.668,23.174,25.668,23.174s-12.357-21.639-8.921-41.8,26.658-11.373,22.666-38.845-22.666-71.942-22.666-71.942l-12.339-48.955,5.685-40.638Z" transform="translate(-6498.46 2942.39)" fill="#9b9fb0"/>
              </g>
              <g transform="matrix(1, 0, 0, 1, -306.43, -22.13)" filter="url(#Path_88)">
                <path id="Path_88-2" data-name="Path 88" d="M6811.406-2928.343s41.736-19.329,71.323,27.44,36.158,71.778,48.712,110.428-6.714,48.3,0,73.451,24.353,32.388,25.986,48.979c.9,9.108,2.765,28.916-2.94,47.5-4.555,14.839-16.75,37.41-16.75,37.41l-15.957-30.441-6.872-41.378L6892-2729.74s-15.078-10.065-24.143-27.232c-8.566-16.223-11.06-39.407-14.74-47.969-7.495-17.438-8.23-51.721-19.568-76.7s-28.045-28.315-28.045-28.315a55.708,55.708,0,0,1,1.966-10.411A31.275,31.275,0,0,1,6811.406-2928.343Z" transform="translate(-6495.1 2954.43)" fill="#9b9fb0"/>
              </g>
              <g transform="matrix(1, 0, 0, 1, -306.43, -22.13)" filter="url(#Path_85)">
                <path id="Path_85-2" data-name="Path 85" d="M6801.224-2891.305a45.962,45.962,0,0,0,11.583,2.475c6.724.647,16.175.326,21.326,11.639,10.178,22.357,5.339,35.129,16.192,72.454,5.535,19.035,11.533,30.991,10.449,45.833-1.005,13.758,2.623,26.17,5.4,43.167,5.658,34.687,20.745,24.293,26.651,54.27,2.747,13.939-7.524,36.04,0,52.208,8.4,18.041,24.118,21.864,24.789,32.04,1.255,19.021-11.258,26.881-8.59,43.121s29.689,29.832,29.689,29.832-10.083-17.364-6.607-31.979,15.134-17.382,24.143-40.973-15.223-30.983-17.536-43.65,16.967-34.446,2.017-60.411-34.772-24.177-31.8-62.832c-4.337-27.769-5.523-40-12.822-72-5.709-25.03-13.055-53.1-33.292-73.446-8.413-8.457-14.044-19.677-23.889-23.381-17.289-6.506-27.535.266-33.6,3.424C6804.543-2902.132,6801.224-2891.305,6801.224-2891.305Z" transform="translate(-6494.79 2953.06)" fill="#c7cbdc"/>
              </g>
            </g>
            <g transform="matrix(1, 0, 0, 1, -142.26, -19.92)" filter="url(#ansikte_skugga)">
              <path id="ansikte_skugga-2" data-name="ansikte skugga" d="M5327.739-2854.068l-3.858,76.879,9.5-.508s-26.785-14.468-27.375-2.377c-.272,5.587-.361,7.634,2.147,14.257a26.7,26.7,0,0,0,8.161,11.167l13.314-7.731s17.619,30.009,34.79,38.655,9.106,18.184,29.659,17.793,20.544-8.259,38.884-17.793,29.227-37.61,29.227-37.61,7.423,10.295,14.74,8.387,6.412-7.667,7.37-12.868,6.814-11.72,0-14.257-16.936,5.824-16.936,5.824l-5.175-72.53s12.319-74.083-73.045-72.22S5327.739-2854.068,5327.739-2854.068Z" transform="translate(-5089.37 2976.24)" fill="#d5d3d3"/>
            </g>
            <path id="ansikte_kopia" data-name="ansikte kopia" d="M5308.256-2852.024l3.642,81.047s-10.013-11.08-17.013-5.486-3.409,20.706-3.409,20.706l2.512,5.818s-2.3,9.937-.523,14.03,4.658,7.333,12.191,7.119,11.148-8.263,11.148-8.263,16.052,32.033,31.926,40.9,16.386,17.019,35.385,16.617,18.148-7.3,34.407-16.617,32.6-40.9,32.6-40.9,4.744,9.879,11.958,8.921c8.013-.711,10.73-5.161,11.668-12.414.325-2.514-.49-6.4-.5-9.394-.01-2.071,1.973-4.057,2.89-5.818,4.706-9.043.879-18.1-5.42-20.706s-13.065,5.486-13.065,5.486l1.223-75.616s-.385-74.318-79.3-72.406S5308.256-2852.024,5308.256-2852.024Z" transform="translate(-5220.721 2939.964)" fill="#f5f5f5"/>
            <g id="Group_70" data-name="Group 70" transform="translate(71.197 167.847)">
              <g id="inneröra_höger" data-name="inneröra höger" transform="translate(164.073)" opacity="0.62">
                <g transform="matrix(1, 0, 0, 1, -377.53, -187.76)" filter="url(#Path_94)">
                  <path id="Path_94-3" data-name="Path 94" d="M16.869-4.781C14.142-4.827,10.188-4.21,7.96-.26s.841,7.7,0,11.278A10.755,10.755,0,0,1,4.5,16.583s6.3-3.2,7.367-5.564S7.917,4.46,9.464.943s4.863-3.99,6.942-3.99c2.541,0,7.795,5.193,7.795,5.193S20.52-4.72,16.869-4.781Z" transform="translate(373.03 192.55)" fill="#75798c"/>
                </g>
                <path id="Path_95" data-name="Path 95" d="M14.679-3.761c-2.857-1.2-3.817-.771-6.316,0-1.17.361,0,1.354,0,1.354a7.507,7.507,0,0,1,5.414-.6c2.857.865,3.708,5.274,3.708,5.274S17.536-2.558,14.679-3.761Z" transform="translate(-4.604 12.195)" fill="#75798c"/>
                <path id="Path_126" data-name="Path 126" d="M9.168,3.438C5.9,1.524,0,1.409,0,1.409L1.31,0s5.847.655,8.822,3.194,2.9,8.6,2.9,8.6S12.439,5.352,9.168,3.438Z" transform="matrix(0.309, 0.951, -0.951, 0.309, 19.214, 4.378)" fill="#75798c"/>
              </g>
              <g id="inneröra_vänster" data-name="inneröra vänster" opacity="0.58">
                <g transform="matrix(1, 0, 0, 1, -213.46, -187.76)" filter="url(#Path_94-2)">
                  <path id="Path_94-4" data-name="Path 94" d="M11.834-4.781c2.728-.046,6.682.572,8.909,4.522s-.841,7.277,0,10.859A13.326,13.326,0,0,0,24.2,16.583S17.842,13.39,17.1,10.6,20.786,4.46,19.239.943s-4.863-3.99-6.942-3.99C9.755-3.046,4.5,2.147,4.5,2.147S8.183-4.72,11.834-4.781Z" transform="translate(210.47 192.55)" fill="#75798c"/>
                </g>
                <path id="Path_95-2" data-name="Path 95" d="M10.649-3.761c2.857-1.2,3.817-.771,6.316,0,1.17.361,0,1.354,0,1.354a7.507,7.507,0,0,0-5.414-.6c-2.857.865-3.708,5.274-3.708,5.274S7.792-2.558,10.649-3.761Z" transform="translate(0.49 12.195)" fill="#75798c"/>
                <path id="Path_125" data-name="Path 125" d="M9.176,6.916A9.984,9.984,0,0,1,.43,8.388C-.74,8.027.848,7.46.848,7.46s4.768.689,7.607-1.176S12.2,0,12.2,0,12.119,4.819,9.176,6.916Z" transform="matrix(-0.309, 0.951, -0.951, -0.309, 12.156, 8.812)" fill="#75798c"/>
              </g>
            </g>
            <g id="ögonbryn" transform="translate(98.556 110.165)">
              <g transform="matrix(1, 0, 0, 1, -240.81, -130.08)" filter="url(#Path_93)">
                <path id="Path_93-2" data-name="Path 93" d="M43.939,7.763s-9.421-8.569-13.7-9.116a78.765,78.765,0,0,0-19.026,0A131.71,131.71,0,0,0-3,1.516v7.2S1.221,8.7,9.983,7.763s14.2-4.194,20.256-4.374S43.939,7.763,43.939,7.763Z" transform="translate(324.74 132.01)" fill="url(#linear-gradient-3)"/>
              </g>
              <g transform="matrix(1, 0, 0, 1, -240.81, -130.08)" filter="url(#Path_97)">
                <path id="Path_97-2" data-name="Path 97" d="M-3,7.763S6.173-.806,10.339-1.354a74.7,74.7,0,0,1,18.527,0A125.327,125.327,0,0,1,42.708,1.516v7.2S38.6,8.7,30.064,7.763,16.235,3.568,10.339,3.389-3,7.763-3,7.763Z" transform="translate(243.82 132.01)" fill="url(#linear-gradient-4)"/>
              </g>
            </g>
            <g id="hår_framför" data-name="hår framför" transform="translate(52.131 12.425)">
              <g transform="matrix(1, 0, 0, 1, -194.39, -32.34)" filter="url(#Path_90)">
                <path id="Path_90-2" data-name="Path 90" d="M6076.336-2932.174l-.965,21.166a70.263,70.263,0,0,0-13.955,0c-13.383,1.146-33.328,6.886-45.618,27.893-6.189,10.579.47,29.438,0,46.152-.473,16.793-11.812,46.722-15.37,48.32,0,0-15.684,14.089-21.1,13.337s-11.9-6.6-11.9-6.6l4.974-24.754,6.131-30.307,11.983-52.985s6.451-25.023,22.09-37.73,21.9-11.143,33.82-12.707S6076.336-2932.174,6076.336-2932.174Z" transform="translate(-5765.76 2973.75)" fill="#dee0ed"/>
              </g>
              <g transform="matrix(1, 0, 0, 1, -194.39, -32.34)" filter="url(#Path_91)">
                <path id="Path_91-2" data-name="Path 91" d="M6082.692-2921.881c0-6.969,2.032-10.818,2.032-10.818s13.534-11.773,28.426-7.868,27.2,13.539,41.545,31.7,15.5,39.792,15.5,39.792,7.577,38.186,7.983,60.845c.175,9.789,3.336,19.739,6.973,28.117.854,1.969,12.066,13.488,12.38,19.235,1.3,23.709-2.42,6.541-2.42,6.541l-5.414-4.21-4.546-3.5-13.589-14.526s-14.885-10.835-23.581-21.533c-5.343-6.574-8.009-11.153-12.593-21.373-11.754-26.2-2.758-46.209-12.884-67-4.324-8.878-9.644-15.791-14.8-19.668-6.429-4.837-24.38-4.567-24.38-4.567A82.485,82.485,0,0,1,6082.692-2921.881Z" transform="translate(-5773.97 2973.7)" fill="#dee0ed"/>
              </g>
              <g transform="matrix(1, 0, 0, 1, -194.39, -32.34)" filter="url(#Path_89)">
                <path id="Path_89-2" data-name="Path 89" d="M6804.566-2902.96s23.921-12.106,39.775,17.421,10.15,50.167,23.708,82.546,20.726,28.313,32.918,42.595c4.157,4.87,8.159,12.827,11.325,17.158a18.847,18.847,0,0,1,2.8,16.2s16.867-13,3.6-34.916c-5.346-8.831-20.576-19.275-34.32-37.6-13.744-32.641-10.346-74.443-29.5-98.463S6804.566-2902.96,6804.566-2902.96Z" transform="translate(-6495.03 2966.23)" fill="#eceefb"/>
              </g>
              <g transform="matrix(1, 0, 0, 1, -194.39, -32.34)" filter="url(#Path_81)">
                <path id="Path_81-2" data-name="Path 81" d="M6789.473-2903.526s-30.993-9.843-55.286,13.183c-24.318,23.049.729,48.837-13.619,91.512-7.748,23.045-12.673,23.226-23.906,32.146s-11.738,30.869-13.009,37.014c0,0-16.188-17.18-5.286-38.655s18.065-18.49,26.431-44.271.27-42.293,9.934-67.7,20.663-29.488,32.342-31.265S6789.473-2903.526,6789.473-2903.526Z" transform="translate(-6480.2 2966.35)" fill="#eceefb"/>
              </g>
            </g>
            <g id="töjning" transform="translate(74.258 189.601)">
              <g transform="matrix(1, 0, 0, 1, -216.52, -209.52)" filter="url(#Ellipse_6)">
                <ellipse id="Ellipse_6-2" data-name="Ellipse 6" cx="9.752" cy="9.752" rx="9.752" ry="9.752" transform="translate(216.52 209.52)" fill="#fff"/>
              </g>
              <g transform="matrix(1, 0, 0, 1, -216.52, -209.52)" filter="url(#Ellipse_7)">
                <ellipse id="Ellipse_7-2" data-name="Ellipse 7" cx="9.752" cy="9.752" rx="9.752" ry="9.752" transform="translate(375.08 209.52)" fill="#fff"/>
              </g>
            </g>
            <g id="näsa-2" data-name="näsa" transform="translate(145.054 147.189)">
              <g transform="matrix(1, 0, 0, 1, -287.31, -167.1)" filter="url(#Path_118)">
                <path id="Path_118-2" data-name="Path 118" d="M5.431.832A8.891,8.891,0,0,0,0,1.05,7.393,7.393,0,0,1,5.584.219a8.36,8.36,0,0,1,4.777,3.414A10.215,10.215,0,0,0,5.431.832Z" transform="translate(311.1 209.96) rotate(166)" fill="#8e91a0"/>
              </g>
              <g transform="matrix(1, 0, 0, 1, -287.31, -167.1)" filter="url(#Path_117)">
                <path id="Path_117-2" data-name="Path 117" d="M10.252,2.367A85.45,85.45,0,0,0,0,0,44.516,44.516,0,0,1,10.389,1.77,134.049,134.049,0,0,1,23.335,6.685S15.818,4.02,10.252,2.367Z" transform="translate(300.3 167.1) rotate(77)" fill="#8e91a0"/>
              </g>
              <g transform="matrix(1, 0, 0, 1, -287.31, -167.1)" filter="url(#näsa)">
                <path id="näsa-3" data-name="näsa" d="M3.362-11.613S.572-6.8,1.458-3.148A7.866,7.866,0,0,0,3.767.7,10.943,10.943,0,0,0,7.53,3.24c1.158.4-.374-3.29,1.106-3.674s3.746,1.21,4.771,2.066c1.445,1.212,3,2.268,4.8,2.268a6.652,6.652,0,0,0,5.2-1.661c1.2-1,3.848-2.865,5.751-2.673s.272,4.079,1.325,3.674,2.624-.387,4.224-2.054A5.691,5.691,0,0,0,36.37-3.431c-.279-3.584-2.633-8.181-2.633-8.181a7.222,7.222,0,0,1,1.58,2.39c.934,2.313,1.97,4.961,1.742,7.128-.564,5.338-5.572,6.5-7.2,6.57s.765-3.856-1.908-3.289-6.028,4.658-9.739,4.658c-1.691,0-3.092-1.216-4.634-2.6a7.3,7.3,0,0,0-3.2-2.054c-2.537-.425.161,3.745-2,3.289A9.827,9.827,0,0,1,1.742-.637a8.512,8.512,0,0,1-.283-7.938C2.743-11.41,3.362-11.613,3.362-11.613Z" transform="translate(286.7 212.5)" fill="#75798c" opacity="0.8"/>
              </g>
            </g>
          </g>
        </g>
      </g>
    </g>
    <g id="läpp" transform="translate(-72.247 -73.506)">
      <path id="Path_103" data-name="Path 103" d="M6.364,3.916s7.805.49,14.276,1.509,2.852,2.566,11.607,2.566c7.526,0,6.972-1.548,13.758-2.566S59.391,3.916,59.391,3.916s-2.638,1.978-7.708,6.514c-4.618,4.134-10.9,9.447-19.435,9.447-9.113,0-15.007-4.615-19.435-9.447C9.329,6.633,6.364,3.916,6.364,3.916Z" transform="translate(345.673 308.63)" fill="#e5e5e5"/>
      <path id="Path_104" data-name="Path 104" d="M7.063,3.2a60.107,60.107,0,0,0,6.41,6.363c4.01,3.513,10.019,8.873,18.759,8.873,7.514,0,13.621-5.557,18.575-8.873A74.36,74.36,0,0,0,57.881,4.5a82.318,82.318,0,0,1-6.246,5.93c-4.61,4.134-10.884,9.447-19.4,9.447-9.1,0-14.982-4.615-19.4-9.447A67.543,67.543,0,0,1,7.063,3.2Z" transform="translate(345.673 309.298)" fill="#8e91a0"/>
      <path id="Path_102" data-name="Path 102" d="M4.489,5.33S7.89,7.4,13.563,6.669s11.023-2.449,12.88-2.33,4.082,2.914,8.267,2.914,7.034-3.2,8.475-2.914,6.847,1.507,12.289,2.33a64.279,64.279,0,0,0,10.245.584,18.6,18.6,0,0,1-8.985,2.817c-4.986.113-5.917.638-11.341,1.587S38.764,13.7,34.71,13.641s-7.067-2.055-13.587-3-7.817-.673-12.16-1.519S4.489,5.33,4.489,5.33Z" transform="translate(343.31 304.179)" fill="#8e91a0"/>
    </g>
    <g id="pupiller" transform="translate(-70.247 -78)">
      <g id="Group_71" data-name="Group 71" transform="translate(329.932 234.163)">
        <g transform="matrix(1, 0, 0, 1, -259.68, -156.16)" filter="url(#Ellipse_22)">
          <ellipse id="Ellipse_22-3" data-name="Ellipse 22" cx="8.193" cy="7.837" rx="8.193" ry="7.837" transform="translate(332.93 156.16)" fill="#c5c9db"/>
        </g>
        <g transform="matrix(1, 0, 0, 1, -259.68, -156.16)" filter="url(#Ellipse_23)">
          <ellipse id="Ellipse_23-3" data-name="Ellipse 23" cx="8.261" cy="7.837" rx="8.261" ry="7.837" transform="translate(259.68 156.16)" fill="#c5c9db"/>
        </g>
      </g>
      <g id="Group_72" data-name="Group 72" transform="translate(331.932 236.122)">
        <g transform="matrix(1, 0, 0, 1, -261.68, -158.12)" filter="url(#Ellipse_22-2)">
          <ellipse id="Ellipse_22-4" data-name="Ellipse 22" cx="6.193" cy="5.837" rx="6.193" ry="5.837" transform="translate(334.93 158.12)" fill="#75798c"/>
        </g>
        <g transform="matrix(1, 0, 0, 1, -261.68, -158.12)" filter="url(#Ellipse_23-2)">
          <ellipse id="Ellipse_23-4" data-name="Ellipse 23" cx="5.761" cy="5.837" rx="5.761" ry="5.837" transform="translate(261.68 158.12)" fill="#75798c"/>
        </g>
      </g>
      <g id="Group_73" data-name="Group 73" transform="translate(338 239)">
        <circle id="Ellipse_24" data-name="Ellipse 24" cx="1.5" cy="1.5" r="1.5" fill="#fff"/>
        <circle id="Ellipse_25" data-name="Ellipse 25" cx="1.5" cy="1.5" r="1.5" transform="translate(73.997)" fill="#fff"/>
      </g>
    </g>
    <g id="ögon" transform="translate(248.584 148.412)">
      <g id="Group_65" data-name="Group 65" transform="translate(-3.563 2)">
        <g transform="matrix(1, 0, 0, 1, -245.02, -150.41)" filter="url(#Path_98)">
          <path id="Path_98-2" data-name="Path 98" d="M15.852-1.182c8.55,0,18.166,7.609,18.166,7.609S24.4,2.169,15.852,2.169-2.422,8.614-2.422,8.614,7.3-1.182,15.852-1.182Z" transform="translate(250.69 155.38)" fill="#75798c"/>
        </g>
        <g transform="matrix(1, 0, 0, 1, -245.02, -150.41)" filter="url(#Path_107)">
          <path id="Path_107-2" data-name="Path 107" d="M16.086,4.553c8.55,0,18.166-5.735,18.166-5.735S24.636,2.941,16.086,2.941A33.082,33.082,0,0,1,.687-1.182S7.536,4.553,16.086,4.553Z" transform="translate(250.45 170.18)" fill="#75798c"/>
        </g>
        <g transform="matrix(1, 0, 0, 1, -245.02, -150.41)" filter="url(#Path_109)">
          <path id="Path_109-2" data-name="Path 109" d="M26.259,1.248C30.319,2.4,34.1,7.517,34.1,7.517S29.462,2.8,26.525,2s-11.894.068-14.884.613S1.185,8.638,1.185,8.638,6.923,2.952,11.375,2,22.2.1,26.259,1.248Z" transform="translate(248.98 149.69)" fill="#75798c"/>
        </g>
        <g id="Group_78" data-name="Group 78" transform="translate(0 4.847) rotate(-8)">
          <g id="Group_74" data-name="Group 74" transform="translate(0 0.647)">
            <path id="Path_128" data-name="Path 128" d="M4.873,6.391a6.479,6.479,0,0,1-1.725.034A3.484,3.484,0,0,1,.87,5.282C-.563,3.634.206,1.046.206,1.046a5.475,5.475,0,0,0,1.9,4.024,4.2,4.2,0,0,0,4.223.361S3.6,5.8,2.711,4.266a6.286,6.286,0,0,1-.5-3.7,6.142,6.142,0,0,0,1.646,3.57,4.118,4.118,0,0,0,3.737.678s-2.4-.224-2.924-1.454A8.673,8.673,0,0,1,4.344,0s.229,2.421,1.593,3.422a5.751,5.751,0,0,0,3.647.659Z" transform="translate(0 0.502) rotate(-3)" fill="#75798c"/>
          </g>
          <g id="Group_76" data-name="Group 76" transform="translate(7.123 0)">
            <path id="Path_128-2" data-name="Path 128" d="M4.991,4.318S1.5,4.517.469,3.343.425.421.425.421A3.285,3.285,0,0,0,1.636,3.168c1.383,1.077,4.4.466,4.4.466S4.08,3.9,3.44,2.8A4.3,4.3,0,0,1,3.268,0,3.928,3.928,0,0,0,4.26,2.707a2.976,2.976,0,0,0,2.684.484s-1.721-.16-2.1-1.037A1.971,1.971,0,0,1,4.932.489,1.879,1.879,0,0,0,5.756,2.2a4.158,4.158,0,0,0,2.619.47Z" transform="translate(0 0.438) rotate(-3)" fill="#75798c"/>
          </g>
          <g id="Group_77" data-name="Group 77" transform="translate(13.807 0.025)">
            <path id="Path_128-3" data-name="Path 128" d="M3.941,3.441s-2.259.4-3.3-.541S.141.212.141.212a3.525,3.525,0,0,0,1.52,2.525,4.332,4.332,0,0,0,3.32.173S3.026,3.1,2.374,2.224A2.757,2.757,0,0,1,2.172,0,2.782,2.782,0,0,0,3.193,2.156a3.665,3.665,0,0,0,2.687.412s-1.722-.145-2.109-.844A1.275,1.275,0,0,1,3.84.405a1.4,1.4,0,0,0,.842,1.366,5.172,5.172,0,0,0,2.623.4Z" transform="translate(0 0.382) rotate(-3)" fill="#75798c"/>
          </g>
        </g>
      </g>
      <g id="Group_64" data-name="Group 64" transform="translate(75.173 2)">
        <g transform="matrix(1, 0, 0, 1, -323.76, -150.41)" filter="url(#Path_99)">
          <path id="Path_99-2" data-name="Path 99" d="M18.655-1.251C10.1-1.251,0,6.422,0,6.422S9.616,2.164,18.166,2.164,36.78,8.45,36.78,8.45,27.2-1.251,18.655-1.251Z" transform="translate(323.76 155.39)" fill="#75798c"/>
        </g>
        <g transform="matrix(1, 0, 0, 1, -323.76, -150.41)" filter="url(#Path_108)">
          <path id="Path_108-2" data-name="Path 108" d="M18.166,4.553C9.616,4.553,0-1.182,0-1.182S9.616,2.941,18.166,2.941A28.3,28.3,0,0,0,32.79-1.182S26.717,4.553,18.166,4.553Z" transform="translate(324.66 170.18)" fill="#75798c"/>
        </g>
        <g transform="matrix(1, 0, 0, 1, -323.76, -150.41)" filter="url(#Path_110)">
          <path id="Path_110-2" data-name="Path 110" d="M9.026,1.248C4.966,2.4,1.185,7.517,1.185,7.517S5.823,2.8,8.76,2s11.894.068,14.884.613S34.1,8.638,34.1,8.638,28.361,2.952,23.909,2,13.086.1,9.026,1.248Z" transform="translate(324.94 149.69)" fill="#75798c" opacity="0.79"/>
        </g>
        <g id="Group_79" data-name="Group 79" transform="translate(39.433 12.374) rotate(-172)">
          <g id="Group_74-2" data-name="Group 74" transform="translate(0 0)">
            <path id="Path_128-4" data-name="Path 128" d="M4.873.07A6.479,6.479,0,0,0,3.148.036,3.484,3.484,0,0,0,.87,1.18C-.563,2.828.206,5.415.206,5.415a5.475,5.475,0,0,1,1.9-4.024A4.2,4.2,0,0,1,6.332,1.03S3.6.662,2.712,2.195a6.286,6.286,0,0,0-.5,3.7A6.142,6.142,0,0,1,3.854,2.33a4.118,4.118,0,0,1,3.737-.678s-2.4.224-2.924,1.454a8.673,8.673,0,0,0-.324,3.355S4.573,4.04,5.937,3.039A5.751,5.751,0,0,1,9.584,2.38Z" transform="translate(0.338 0) rotate(3)" fill="#75798c"/>
          </g>
          <g id="Group_76-2" data-name="Group 76" transform="translate(7.123 2.838)">
            <path id="Path_128-5" data-name="Path 128" d="M4.991.013S1.5-.187.469.988.425,3.91.425,3.91A3.285,3.285,0,0,1,1.636,1.163C3.019.086,6.039.7,6.039.7s-1.959-.262-2.6.83a4.3,4.3,0,0,0-.171,2.8A3.928,3.928,0,0,1,4.26,1.623,2.976,2.976,0,0,1,6.944,1.14s-1.721.16-2.1,1.037a1.971,1.971,0,0,0,.087,1.665,1.879,1.879,0,0,1,.824-1.713,4.158,4.158,0,0,1,2.619-.47Z" transform="translate(0.227 0) rotate(3)" fill="#75798c"/>
          </g>
          <g id="Group_77-2" data-name="Group 77" transform="translate(13.807 3.673)">
            <path id="Path_128-6" data-name="Path 128" d="M3.941.085S1.682-.316.64.626s-.5,2.688-.5,2.688A3.525,3.525,0,0,1,1.661.789,4.332,4.332,0,0,1,4.981.616S3.026.429,2.374,1.3a2.757,2.757,0,0,0-.2,2.224A2.782,2.782,0,0,1,3.193,1.369,3.666,3.666,0,0,1,5.88.957S4.158,1.1,3.771,1.8A1.275,1.275,0,0,0,3.84,3.12a1.4,1.4,0,0,1,.842-1.366,5.172,5.172,0,0,1,2.623-.4Z" transform="translate(0.185 0) rotate(3)" fill="#75798c"/>
          </g>
        </g>
      </g>
    </g>
  </g>
</svg>
